<?xml version="1.0" encoding="UTF-8"?>
<!DOCTYPE svg PUBLIC "-//W3C//DTD SVG 1.1//EN" "http://www.w3.org/Graphics/SVG/1.1/DTD/svg11.dtd">
<!-- Creator: CorelDRAW 2018 (64-Bit) -->
<svg xmlns="http://www.w3.org/2000/svg" xml:space="preserve" width="500mm" height="500mm" version="1.1" style="shape-rendering:geometricPrecision; text-rendering:geometricPrecision; image-rendering:optimizeQuality; fill-rule:evenodd; clip-rule:evenodd"
viewBox="0 0 50000 50000"
 xmlns:xlink="http://www.w3.org/1999/xlink">
 <defs>
  <style type="text/css">
   <![CDATA[
    .str0 {stroke:#2B2A29;stroke-width:20;stroke-miterlimit:22.9256}
    .fil0 {fill:none}
   ]]>
  </style>
 </defs>
 <g id="Слой_x0020_1">
  <metadata id="CorelCorpID_0Corel-Layer"/>
  <path class="fil0 str0" d="M9445.55 12128.72c2456.47,2311.97 1300.49,1329.38 2456.47,2340.87 1155.98,1011.49 1011.48,722.5 1155.98,1011.49 144.5,288.99 115.6,-173.41 144.5,288.99 28.9,462.4 86.7,173.41 28.9,462.4 -57.8,288.99 288.99,-0.01 -57.8,288.99 -346.79,289 -346.79,289 -346.79,289l-317.9 0c-433.49,-28.9 -46.61,36.91 -462.39,-57.8 -415.78,-94.71 -60.66,59.18 -415.78,-94.71 -355.12,-153.89 -177.56,-11.85 -355.12,-153.89 -177.56,-142.04 -35.51,47.36 -177.56,-142.04 -142.05,-189.4 153.88,201.23 -142.05,-189.4 -295.93,-390.63 11.84,-35.51 -295.93,-390.63 -307.77,-355.12 0,23.67 -307.77,-355.12 -307.77,-378.79 59.18,59.18 -331.45,-402.47 -390.63,-461.65 -35.51,-224.9 -390.63,-461.65 -355.12,-236.75 -118.37,-213.08 -378.79,-248.59 -260.42,-35.51 -118.37,-35.51 -260.42,-35.51 -142.05,0 106.52,11.84 -165.73,0 -272.25,-11.84 23.69,-59.19 -272.25,-11.84 -295.94,47.35 -82.87,-71.03 -295.94,47.35 -213.07,118.38 94.7,-59.18 -213.07,118.38 -307.77,177.56 -118.38,59.18 -319.61,236.74 -201.23,177.56 59.19,0 -201.23,177.56 -260.42,177.56 82.86,-82.86 -260.42,177.56 -343.28,260.42 -23.67,11.83 -343.28,260.42 -319.61,248.59 -82.86,59.19 -260.42,224.91 -177.56,165.72 260.42,-142.04 -130.21,153.89 -390.63,295.93 -82.86,189.39 -402.47,366.95 -319.61,177.56 59.18,35.52 -319.61,189.4 -378.79,153.88 71.03,47.34 -378.79,153.88 -449.82,106.54 -189.4,82.87 -461.66,82.87 -272.26,0 -47.36,82.86 -272.26,-11.84 -224.9,-94.7 -224.9,-106.54 -224.9,-106.54 0,0 -651.05,-568.18 71.02,-1254.75 722.07,-686.57 -71.03,35.51 722.07,-662.89 793.1,-698.4 -23.68,-35.51 1018.01,-793.1 1041.69,-757.59 1503.34,-1160.05 1893.97,-1349.45 390.63,-189.4 390.63,-189.4 390.63,-189.4l733.92 -11.84 146.76 51.81z"/>
  <path class="fil0 str0" d="M13058 15481.08c137.73,182.38 137.11,172.96 137.11,172.96 0,0 -368.77,-422.66 -7.75,-88.17"/>
  <path class="fil0 str0" d="M11706.41 16690.69l-4.65 1955.93c0,0 -11.84,-449.82 35.51,260.42 47.35,710.24 71.02,852.28 0,994.33 -71.02,142.05 -153.88,378.79 -284.09,437.98 -130.21,59.19 -165.73,142.04 -366.96,213.07 -201.23,71.03 -106.53,23.68 -520.84,59.19 -414.31,35.51 -461.66,59.18 -722.08,71.02 -260.42,11.84 -1384.96,23.68 -1384.96,23.68l-1124.55 -23.68 -793.1 -106.53 -568.19 -189.4 -260.42 -319.61 -82.86 -473.49 -11.84 -343.28 71.03 -591.87 35.51 -343.28 23.67 -852.28 0 -615.54 -9.49 -598.41"/>
  <polygon class="fil0 str0" points="8813.46,14846.84 9014.69,15071.75 9109.39,15355.85 9215.92,15651.78 9298.79,15912.2 9464.51,16089.76 9795.95,16290.99 10162.91,16385.69 10482.52,16444.88 10766.61,16551.41 10660.08,16740.81 10447,16918.37 10316.79,17036.74 10151.07,17214.3 9997.19,17439.21 9949.84,17616.77 10020.86,17841.68 10068.21,18031.08 10174.75,18196.8 10245.77,18398.03 10387.82,18646.62 10423.33,18871.53 10364.14,19025.41 10162.91,18989.9 9949.84,18883.36 9736.77,18812.34 9500.02,18717.64 9275.11,18670.29 9038.37,18540.08 8699.74,18477.63 8422.83,18516.41 8174.24,18693.97 7913.82,18930.71 7677.08,19131.95 7475.84,19202.97 7298.28,19285.83 7286.44,19060.92 7345.63,18788.67 7381.14,18540.08 7381.14,18196.8 7381.14,17995.57 7191.75,17818.01 6907.65,17664.12 6718.25,17604.93 6552.53,17545.75 6398.65,17451.05 6209.25,17368.19 6457.83,17249.82 6836.63,17072.26 7144.4,16859.18 7404.82,16717.14 7677.08,16444.88 7866.47,16137.11 8079.54,15805.66 8328.13,15545.24 8470.17,15261.15 8683.25,14929.7 "/>
  <polygon class="fil0 str0" points="8789.78,16539.58 9026.53,16622.44 9215.92,16788.16 9275.11,16989.39 9275.11,17249.82 9144.9,17462.89 8919.99,17628.61 8754.27,17604.93 8529.36,17593.1 8316.29,17474.72 8126.89,17320.84 8115.06,17048.58 8126.89,16859.18 8233.43,16764.49 8458.34,16575.09 8612.22,16527.74 "/>
  <line class="fil0 str0" x1="4637.66" y1="14990.69" x2="4847.96" y2= "15178.29" />
  <line class="fil0 str0" x1="5053.8" y1="14603.54" x2="5262.26" y2= "14811.33" />
  <line class="fil0 str0" x1="5358.05" y1="14336.05" x2="5558.2" y2= "14527.23" />
  <line class="fil0 str0" x1="5751.93" y1="14000.33" x2="5996.18" y2= "14266.81" />
  <line class="fil0 str0" x1="6139.9" y1="13729.22" x2="6315.78" y2= "13876.18" />
  <line class="fil0 str0" x1="6568.67" y1="13416.17" x2="6860.3" y2= "13722.3" />
  <line class="fil0 str0" x1="6976.56" y1="13111.88" x2="7203.58" y2= "13379.02" />
  <line class="fil0 str0" x1="7371.83" y1="12814.19" x2="7606.05" y2= "13071.25" />
  <line class="fil0 str0" x1="7895.29" y1="12439.12" x2="8150.57" y2= "12739.8" />
  <line class="fil0 str0" x1="8369.56" y1="12183.45" x2="8588.55" y2= "12526.73" />
  <line class="fil0 str0" x1="9049.89" y1="12080.93" x2="9073.88" y2= "12455.71" />
  <line class="fil0 str0" x1="9417.16" y1="12526.73" x2="9629.31" y2= "12301.88" />
  <line class="fil0 str0" x1="10061" y1="12710.65" x2="9784.12" y2= "12893.69" />
  <line class="fil0 str0" x1="10466.46" y1="13098.38" x2="10127.4" y2= "13260.64" />
  <line class="fil0 str0" x1="10838.76" y1="13460.57" x2="10612.73" y2= "13615.76" />
  <line class="fil0 str0" x1="11267.14" y1="13896.72" x2="10932.33" y2= "14112.93" />
  <line class="fil0 str0" x1="11644.02" y1="14243.07" x2="11382.15" y2= "14432.54" />
  <line class="fil0 str0" x1="12029.65" y1="14580.57" x2="11678.08" y2= "14740.31" />
  <line class="fil0 str0" x1="12382.04" y1="14878.16" x2="12127.9" y2= "14965.22" />
  <line class="fil0 str0" x1="12871.38" y1="15254.89" x2="12506.7" y2= "15450.54" />
  <line class="fil0 str0" x1="13202.5" y1="15770.07" x2="12802.63" y2= "15829.34" />
  <line class="fil0 str0" x1="13231.4" y1="16232.47" x2="12921" y2= "16160.78" />
  <line class="fil0 str0" x1="13000.2" y1="16665.97" x2="12755.28" y2= "16480.39" />
  <line class="fil0 str0" x1="12234.39" y1="16797.89" x2="12269.95" y2= "16539.58" />
  <line class="fil0 str0" x1="11706.41" y1="16690.69" x2="11737.27" y2= "16350.18" />
  <line class="fil0 str0" x1="11098.06" y1="16362.02" x2="11382.15" y2= "16101.6" />
  <line class="fil0 str0" x1="10813.88" y1="15971.95" x2="11157.24" y2= "15734.64" />
  <line class="fil0 str0" x1="10648.24" y1="15663.62" x2="10873.15" y2= "15415.03" />
  <line class="fil0 str0" x1="10261.69" y1="15314.71" x2="10612.73" y2= "14988.89" />
  <line class="fil0 str0" x1="9906.67" y1="14881.97" x2="10375.98" y2= "14562.75" />
  <line class="fil0 str0" x1="9630.23" y1="14562.75" x2="9997.19" y2= "14266.81" />
  <line class="fil0 str0" x1="9320.85" y1="14324.17" x2="9618.39" y2= "13888.02" />
  <line class="fil0 str0" x1="8991.02" y1="14278.65" x2="9050.2" y2= "13876.18" />
  <line class="fil0 str0" x1="8553.04" y1="14266.81" x2="8588.55" y2= "13888.02" />
  <line class="fil0 str0" x1="8108.93" y1="14395.1" x2="7973.01" y2= "14172.12" />
  <line class="fil0 str0" x1="7724.42" y1="14669.28" x2="7523.19" y2= "14468.05" />
  <line class="fil0 str0" x1="7306.04" y1="14991.57" x2="7108.88" y2= "14763.98" />
  <line class="fil0 str0" x1="6919.49" y1="15284.82" x2="6659.07" y2= "15130.94" />
  <line class="fil0 str0" x1="6528.86" y1="15663.62" x2="6315.78" y2= "15486.06" />
  <line class="fil0 str0" x1="6126.39" y1="16030.57" x2="5865.97" y2= "15805.66" />
  <line class="fil0 str0" x1="5542.19" y1="16346.73" x2="5345.13" y2= "16125.27" />
  <line class="fil0 str0" x1="4966.33" y1="16456.72" x2="4966.33" y2= "16160.78" />
  <line class="fil0 str0" x1="4469.17" y1="16338.34" x2="4599.38" y2= "15971.39" />
  <line class="fil0 str0" x1="4201.97" y1="15697.79" x2="4599.38" y2= "15592.59" />
  <line class="fil0 str0" x1="7771.78" y1="16291" x2="8150.79" y2= "16538.51" />
  <line class="fil0 str0" x1="8079.54" y1="15805.66" x2="8514.79" y2= "16076.86" />
  <line class="fil0 str0" x1="8399.15" y1="15403.2" x2="8790.01" y2= "15721.74" />
  <line class="fil0 str0" x1="9215.92" y1="15651.78" x2="9038.59" y2= "15748.37" />
  <line class="fil0 str0" x1="9381.65" y1="16000.98" x2="9154" y2= "16139" />
  <line class="fil0 str0" x1="9668.62" y1="16213.68" x2="9446.98" y2= "16529.64" />
  <line class="fil0 str0" x1="10045.53" y1="16355.4" x2="9810.98" y2= "16751.59" />
  <line class="fil0 str0" x1="10233.93" y1="17125.52" x2="10024.05" y2= "16964.66" />
  <line class="fil0 str0" x1="10026.8" y1="17395.95" x2="9748.83" y2= "17275.39" />
  <line class="fil0 str0" x1="9970.05" y1="17680.75" x2="9686.68" y2= "17719.29" />
  <line class="fil0 str0" x1="10068.21" y1="18031.08" x2="9784.34" y2= "18092.16" />
  <line class="fil0 str0" x1="10012.34" y1="18914.61" x2="10015.17" y2= "18695.87" />
  <line class="fil0 str0" x1="9618.4" y1="18764.99" x2="9633.42" y2= "18491.67" />
  <line class="fil0 str0" x1="9156.74" y1="18605.19" x2="9313.81" y2= "18331.87" />
  <line class="fil0 str0" x1="8766.04" y1="18489.86" x2="8781.13" y2= "18101.04" />
  <line class="fil0 str0" x1="8422.83" y1="18516.41" x2="8319.47" y2= "18376.26" />
  <line class="fil0 str0" x1="8044.03" y1="18812.34" x2="7955.48" y2= "18633.72" />
  <line class="fil0 str0" x1="7363.39" y1="18664.38" x2="7733.53" y2= "18651.48" />
  <line class="fil0 str0" x1="7381.14" y1="18196.8" x2="7857.82" y2= "18251.97" />
  <line class="fil0 str0" x1="7381.14" y1="17995.57" x2="7662.5" y2= "17870.21" />
  <line class="fil0 str0" x1="7132.27" y1="17785.8" x2="7351.77" y2= "17559.48" />
  <line class="fil0 str0" x1="6635.39" y1="17575.34" x2="6881.24" y2= "17399.68" />
  <line class="fil0 str0" x1="6990.52" y1="16965.72" x2="7147.58" y2= "17195.49" />
  <line class="fil0 str0" x1="7274.61" y1="16788.16" x2="7493.82" y2= "17017.93" />
  <line class="fil0 str0" x1="7540.95" y1="16581.01" x2="7857.82" y2= "16831.49" />
  <path class="fil0 str0" d="M18464.67 11920.46c455,-310.74 987.69,-521.59 987.69,-521.59l577.08 -122.08 532.68 22.2 565.98 55.49 432.81 122.07 321.83 321.83 221.96 155.37 99.88 210.86 -44.39 221.95 -233.05 155.37 -366.23 210.85 -344.02 66.59 -377.33 55.49 -543.78 0 -355.13 11.1 -654.76 -22.2 -466.1 -77.68 -355.12 -110.98 -199.76 -99.88 -144.27 -155.37 -66.59 -177.56 144.27 -155.37 266.35 -166.46z"/>
  <polyline class="fil0 str0" points="18309.3,12153.51 18364.79,12297.78 18631.13,12430.95 18952.96,12519.73 19374.67,12553.03 19907.36,12597.42 20417.85,12575.22 20939.44,12541.93 21383.35,12541.93 "/>
  <polyline class="fil0 str0" points="21383.35,12541.93 21685.76,12439.28 21852.22,12311.66 21957.65,12100.8 21993.72,11876.07 "/>
  <line class="fil0 str0" x1="20071.83" y1="12590.27" x2="20071.05" y2= "12317.2" />
  <path class="fil0 str0" d="M18163.43 12465.93l-145.45 195.3 -260.79 -144.27 -282.99 -83.23 -416.17 -11.1c0,0 -327.38,0 -371.77,0 -44.39,0 -332.93,61.04 -332.93,61.04l-410.61 183.11 -338.48 255.25 -316.28 288.54c0,0 -172.02,338.47 -172.02,399.51 0,61.04 -110.97,654.77 -116.52,688.06 -5.55,33.29 -5.55,443.9 -5.55,443.9l66.58 355.13 72.14 393.97 88.78 305.18 172.01 455.01 294.09 565.98 288.54 399.51 393.97 377.32 249.7 210.86 72.13 33.29 186.32 -309.47 125.68 -350.57 191.82 -343.96 231.51 -463.02 277.81 -502.71 277.82 -502.71 456.4 -635 343.96 -330.73 119.07 -105.84 -423.34 -171.98 -238.12 -238.12 -145.53 -277.81 -66.14 -357.19 -11.09 -587.95"/>
  <line class="fil0 str0" x1="18774.63" y1="14242.46" x2="18769.9" y2= "13718.81" />
  <path class="fil0 str0" d="M18769.9 13718.81l276.62 -124.71 266.6 -39.01c0,0 173.41,-49.85 195.08,-52.02 21.67,-2.17 127.88,-28.19 145.22,-32.52 17.34,-4.33 117.06,-71.53 136.56,-84.53 19.5,-13 119.21,-121.38 119.21,-121.38l117.04 -188.57 15.18 -162.57c0,0 78.03,210.25 84.53,229.76 6.5,19.51 49.85,121.39 69.36,143.06 19.51,21.67 93.2,73.7 110.54,86.7 17.34,13 132.22,60.69 132.22,60.69l164.73 15.17c0,0 188.58,30.35 244.93,43.35 56.35,13 260.09,39.01 275.27,43.35 15.18,4.34 216.76,47.68 229.76,49.85 13,2.17 197.24,36.85 197.24,36.85l28.18 0 19.51 186.41 6.5 125.71c0,0 -45.51,108.38 -67.19,127.89 -21.68,19.51 -80.19,134.39 -86.7,147.39 -6.51,13 -75.87,106.21 -84.54,121.38 -8.67,15.17 -10.83,21.68 -10.83,21.68l-231.93 104.04 -177.73 73.69 -182.07 56.36 -153.9 23.84c0,0 -117.05,10.85 -130.05,13.01 -13,2.16 -492.02,13 -492.02,13 0,0 -238.42,-17.34 -251.43,-17.34 -13.01,0 -283.95,-52.02 -283.95,-52.02l-214.58 -78.03 -192.91 -88.87 -142.15 -106.14"/>
  <path class="fil0 str0" d="M22043.67 12464.25l147.17 208.16 105 193.05 57.57 284.49 -6.77 165.96 -98.22 243.85 -145.64 264.17 -88.05 165.96c0,0 -176.12,118.55 -209.99,142.25 -33.87,23.7 -226.92,138.86 -226.92,138.86l-217.87 70.72"/>
  <path class="fil0 str0" d="M22347.97 13283.35l413.07 -181.44c0,0 287.89,-76.21 313.29,-80.44 25.4,-4.23 292.13,-63.51 321.76,-67.74 29.63,-4.23 516.5,-4.23 516.5,-4.23 0,0 317.53,12.7 342.93,12.7 25.4,0 325.99,76.21 325.99,76.21l245.55 160.87 198.98 258.26 190.51 334.45 148.18 376.8 0 482.63 12.7 275.19 -33.87 296.35 -139.71 453 -389.49 673.15 -465.7 584.24 -503.81 580.01 -431.83 385.26 -292.12 211.68 -372.56 -783.22 -237.08 -486.87 -105.84 -364.09 -211.68 -474.17 -135.48 -353.5 -227.56 -455.12 -216.98 -301.65 -374.76 -486.92"/>
  <polyline class="fil0 str0" points="23120.9,18110.3 23307.18,18474.41 23476.53,18860.73 23555.91,19215.3 23471.24,19538.12 23084.92,19919.15 22635.09,20173.17 22063.55,20432.48 21433.79,20649.45 20841.08,20760.59 19999.64,20845.26 19184.66,20771.17 18353.81,20612.41 17734.63,20453.65 17025.5,20194.34 16416.91,19808.01 16125.84,19395.23 16131.14,19061.83 16326.94,18585.55 16533.33,18188.64 16691.81,17838.29 "/>
  <polygon class="fil0 str0" points="19676.82,13727.42 19835.59,13711.55 19851.46,13843.85 19687.41,13843.85 "/>
  <polygon class="fil0 str0" points="20375.38,13700.96 20528.85,13706.26 20528.85,13849.14 20370.08,13838.56 "/>
  <line class="fil0 str0" x1="20084.31" y1="13933.82" x2="20126.65" y2= "13933.82" />
  <polyline class="fil0 str0" points="19650.39,14215.41 19785.87,14113.8 19870.54,14156.14 19946.75,14317.02 20061.06,14393.23 20149.97,14367.82 20234.64,14240.81 20285.45,14177.31 20387.06,14160.37 20442.1,14164.61 "/>
  <polyline class="fil0 str0" points="18599.84,15916.08 18980.22,16238.57 19294.45,16362.61 19691.36,16255.11 19898.09,16023.58 20146.16,15973.96 20377.7,16147.61 20493.47,16279.92 20667.12,16387.42 20931.73,16304.73 21270.76,15957.42 "/>
  <polyline class="fil0 str0" points="20377.7,16147.61 20427.31,16536.26 20427.31,16817.41 20476.93,17090.29 20328.08,17280.48 20121.36,17363.17 19840.21,17346.63 19650.02,17206.06 19476.37,17040.67 19435.02,16842.22 19426.75,16544.53 19549.97,16293.41 "/>
  <line class="fil0 str0" x1="20427.31" y1="16536.26" x2="20708.46" y2= "16569.34" />
  <line class="fil0 str0" x1="20427.31" y1="16817.41" x2="20890.38" y2= "16817.41" />
  <polyline class="fil0 str0" points="20476.93,17090.29 20551.35,17470.67 20551.35,17636.05 20526.54,17834.51 20485.2,18008.16 20361.16,18132.2 20410.78,18289.31 20782.88,18297.58 21345.18,18239.69 21576.72,18049.5 21907.48,17776.62 "/>
  <polyline class="fil0 str0" points="19840.21,17346.63 19823.67,17644.32 19765.79,17958.54 19567.33,18190.08 19211.76,18289.31 18756.96,18264.5 18484.08,18223.16 17954.85,17727.01 "/>
  <polyline class="fil0 str0" points="19563.2,17123.37 19501.18,17512.01 19509.44,17908.93 19476.37,18140.46 "/>
  <line class="fil0 str0" x1="19476.37" y1="18140.46" x2="19454.76" y2= "18221.5" />
  <line class="fil0 str0" x1="19506.86" y1="17784.6" x2="19120.8" y2= "17768.36" />
  <line class="fil0 str0" x1="19516.63" y1="17415.25" x2="19038.11" y2= "17379.71" />
  <line class="fil0 str0" x1="19476.37" y1="17040.67" x2="19129.07" y2= "17032.41" />
  <line class="fil0 str0" x1="20514.14" y1="17280.48" x2="21022.69" y2= "17222.59" />
  <line class="fil0 str0" x1="20551.35" y1="17553.36" x2="20948.27" y2= "17536.82" />
  <line class="fil0 str0" x1="20526.54" y1="17834.51" x2="20915.19" y2= "17851.05" />
  <line class="fil0 str0" x1="19426.75" y1="16544.53" x2="19145.6" y2= "16511.45" />
  <line class="fil0 str0" x1="17887.59" y1="12589.1" x2="17729.1" y2= "12874.55" />
  <line class="fil0 str0" x1="17266.12" y1="12428.18" x2="17315.64" y2= "12833.21" />
  <line class="fil0 str0" x1="16829.82" y1="12422.63" x2="16891.84" y2= "12781.52" />
  <line class="fil0 str0" x1="16237.91" y1="12535.15" x2="16561.08" y2= "12946.91" />
  <line class="fil0 str0" x1="15773.48" y1="12794.41" x2="16054.59" y2= "13039.94" />
  <line class="fil0 str0" x1="15379.31" y1="13127.24" x2="15692.81" y2= "13319.02" />
  <line class="fil0 str0" x1="15108.15" y1="13676.89" x2="15610.12" y2= "13928.87" />
  <line class="fil0 str0" x1="14999.42" y1="14298.14" x2="15372.38" y2= "14228.63" />
  <line class="fil0 str0" x1="15007.35" y1="14813.9" x2="15351.71" y2= "14755.79" />
  <line class="fil0 str0" x1="15096.52" y1="15294.16" x2="15558.44" y2= "15210.59" />
  <line class="fil0 str0" x1="15221.37" y1="15796.32" x2="15620.46" y2= "15541.36" />
  <line class="fil0 str0" x1="15393.38" y1="16251.33" x2="15785.84" y2= "16037.51" />
  <line class="fil0 str0" x1="15626.7" y1="16700.36" x2="16023.58" y2= "16471.64" />
  <line class="fil0 str0" x1="15941.17" y1="17168.58" x2="16344.01" y2= "16916.11" />
  <line class="fil0 str0" x1="16295.65" y1="17522.95" x2="16747.13" y2= "17257.21" />
  <polyline class="fil0 str0" points="18619.02,20663.09 18649.04,20957.66 18773.08,21112.71 19217.54,21185.06 19589.66,21195.4 19827.4,21123.04 19853.86,20832.01 "/>
  <polyline class="fil0 str0" points="20147.51,20830.39 20271.86,21050.69 20499.27,21205.74 20788.69,21236.74 21150.46,21195.4 21398.54,20999.01 21566.31,20603.8 "/>
  <line class="fil0 str0" x1="16196.82" y1="19495.88" x2="16447.37" y2= "19262.48" />
  <line class="fil0 str0" x1="16570.17" y1="19905.3" x2="16819.49" y2= "19500.22" />
  <line class="fil0 str0" x1="17025.5" y1="20194.34" x2="17046.89" y2= "19737.96" />
  <line class="fil0 str0" x1="17652.68" y1="20423.69" x2="17677.41" y2= "19934.35" />
  <line class="fil0 str0" x1="18256.25" y1="20533.87" x2="18287.26" y2= "20110.07" />
  <line class="fil0 str0" x1="18769.24" y1="20691.79" x2="18804.09" y2= "20192.76" />
  <line class="fil0 str0" x1="19475.96" y1="20730.26" x2="19496.63" y2= "20337.47" />
  <line class="fil0 str0" x1="19999.64" y1="20845.26" x2="20054.8" y2= "20399.49" />
  <line class="fil0 str0" x1="20841.08" y1="20760.59" x2="20819.7" y2= "20275.45" />
  <line class="fil0 str0" x1="21373.87" y1="20660.69" x2="21346.85" y2= "20172.09" />
  <line class="fil0 str0" x1="22186.82" y1="20376.56" x2="22142.76" y2= "19996.37" />
  <line class="fil0 str0" x1="22755.64" y1="20105.1" x2="22535.55" y2= "19748.3" />
  <line class="fil0 str0" x1="23216.86" y1="19789.03" x2="23000.69" y2= "19500.22" />
  <line class="fil0 str0" x1="23513.58" y1="19376.71" x2="23269.44" y2= "19231.47" />
  <line class="fil0 str0" x1="23413.02" y1="17898.62" x2="23176.41" y2= "17639.66" />
  <line class="fil0 str0" x1="23725.23" y1="17620.09" x2="23517.51" y2= "17422.59" />
  <line class="fil0 str0" x1="24053.15" y1="17273.56" x2="23817.27" y2= "17164.18" />
  <line class="fil0 str0" x1="24387.63" y1="16884.48" x2="24158.37" y2= "16761.06" />
  <line class="fil0 str0" x1="24718.68" y1="16469.15" x2="24437.45" y2= "16295.92" />
  <line class="fil0 str0" x1="25009.11" y1="16012.54" x2="24716.54" y2= "15923.81" />
  <line class="fil0 str0" x1="25257.76" y1="15501.17" x2="24788.89" y2= "15406.98" />
  <line class="fil0 str0" x1="25369.75" y1="14993.77" x2="24933.6" y2= "15003.86" />
  <line class="fil0 str0" x1="25364.73" y1="14497.38" x2="25016.3" y2= "14497.38" />
  <line class="fil0 str0" x1="25341.88" y1="14110.7" x2="24964.61" y2= "14135.6" />
  <line class="fil0 str0" x1="25174.14" y1="13717.54" x2="24726.88" y2= "13773.82" />
  <line class="fil0 str0" x1="24885.4" y1="13275" x2="24571.83" y2= "13546.42" />
  <line class="fil0 str0" x1="24418.99" y1="12998.11" x2="24241.06" y2= "13350.03" />
  <line class="fil0 str0" x1="23817.24" y1="12949.6" x2="23837.94" y2= "13319.02" />
  <line class="fil0 str0" x1="23396.09" y1="12953.73" x2="23393.47" y2= "13319.02" />
  <line class="fil0 str0" x1="22852.84" y1="13077.74" x2="22980.01" y2= "13391.38" />
  <line class="fil0 str0" x1="22434.18" y1="13245.49" x2="22649.25" y2= "13587.77" />
  <path class="fil0 str0" d="M27391.1 13829.19l281.15 -711.16 537.51 -554.04 719.43 -281.16 893.08 -74.43 661.55 124.04 636.74 148.85c0,0 587.11,8.27 636.73,8.27 49.62,0 694.63,-82.69 694.63,-82.69l711.16 -165.39 810.39 -74.42 578.85 66.15 388.66 314.24 396.93 479.62 281.15 479.62 90.97 628.46 -8.27 504.43 -157.12 496.16 -355.58 388.66 -661.55 330.77 -777.31 115.77 -744.24 16.54 -719.43 -148.85 -851.74 -148.84c0,0 -760.78,-0.01 -868.28,16.53 -107.5,16.54 -760.77,181.93 -760.77,181.93l-810.4 57.88 -587.12 -148.84 -496.16 -322.51 -380.39 -562.31 -115.77 -446.54 -24.8 -636.74z"/>
  <path class="fil0 str0" d="M28995.34 15946.13l82.7 380.39 49.61 529.24c0,0 16.54,248.08 24.81,330.77 8.27,82.69 -504.43,49.62 -504.43,49.62l-603.66 -41.35 -694.62 115.77 -570.58 322.5 -372.12 438.28 -115.77 438.27 -82.7 802.13 8.27 570.58 132.31 446.54 297.7 454.81 554.04 231.54 909.63 82.7 826.93 41.34 959.24 8.27 554.04 -16.54 520.97 -603.66c0,0 421.74,-82.69 520.97,-49.61 99.23,33.08 281.15,107.5 281.15,107.5l281.16 330.77 297.69 148.85 512.7 24.81 818.66 -24.81 545.78 8.27 281.16 -82.69 297.69 -372.12 264.62 -471.35 74.42 -554.05 0 -719.43 -99.23 -694.62 -305.96 -678.08 -57.89 -413.47 -90.96 -537.51 8.27 -463.08 4.95 -271.23"/>
  <line class="fil0 str0" x1="28569.47" y1="12423.41" x2="28672.84" y2= "12721.1" />
  <line class="fil0 str0" x1="29100.95" y1="12268.52" x2="29202.08" y2= "12572.25" />
  <line class="fil0 str0" x1="29822.27" y1="12208.4" x2="29863.62" y2= "12514.37" />
  <line class="fil0 str0" x1="30424.9" y1="12321.4" x2="30417.66" y2= "12688.03" />
  <line class="fil0 str0" x1="31034.3" y1="12461.13" x2="30963.44" y2= "12795.53" />
  <line class="fil0 str0" x1="31674.61" y1="12488.73" x2="31658.06" y2= "12919.57" />
  <line class="fil0 str0" x1="32299.26" y1="12426.24" x2="32327.88" y2= "12836.87" />
  <line class="fil0 str0" x1="32914.95" y1="12299.19" x2="32972.88" y2= "12696.29" />
  <line class="fil0 str0" x1="33485.89" y1="12211.84" x2="33560" y2= "12547.45" />
  <line class="fil0 str0" x1="34154.91" y1="12187.8" x2="34114.05" y2= "12522.64" />
  <line class="fil0 str0" x1="34805.53" y1="12437.95" x2="34469.63" y2= "12729.37" />
  <line class="fil0 str0" x1="35139.44" y1="12787.26" x2="34767.32" y2= "13035.34" />
  <line class="fil0 str0" x1="35478.48" y1="13266.88" x2="34965.79" y2= "13299.95" />
  <line class="fil0 str0" x1="35641.01" y1="13658.34" x2="35147.71" y2= "13713.42" />
  <line class="fil0 str0" x1="35710.03" y1="14135.15" x2="35205.6" y2= "14217.85" />
  <line class="fil0 str0" x1="35663.91" y1="14759.08" x2="35189.06" y2= "14614.78" />
  <line class="fil0 str0" x1="35474.01" y1="15212.94" x2="34998.86" y2= "15036.51" />
  <line class="fil0 str0" x1="34964.13" y1="15636.87" x2="34668.09" y2= "15367.28" />
  <line class="fil0 str0" x1="34309.08" y1="15887.71" x2="34180.2" y2= "15483.05" />
  <line class="fil0 str0" x1="33626.95" y1="15973.68" x2="33543.47" y2= "15615.36" />
  <line class="fil0 str0" x1="32899.31" y1="15965.42" x2="32923.27" y2= "15532.67" />
  <line class="fil0 str0" x1="32145.91" y1="15814.06" x2="32154.22" y2= "15458.25" />
  <line class="fil0 str0" x1="31569.8" y1="15713.39" x2="31624.98" y2= "15251.51" />
  <line class="fil0 str0" x1="30963.8" y1="15692.73" x2="30938.63" y2= "15226.7" />
  <line class="fil0 str0" x1="30259.1" y1="15775.85" x2="30144.78" y2= "15359.01" />
  <line class="fil0 str0" x1="29483.1" y1="15911.3" x2="29425.35" y2= "15449.98" />
  <line class="fil0 str0" x1="28814.44" y1="15900.28" x2="28879.57" y2= "15441.71" />
  <line class="fil0 str0" x1="28069.89" y1="15577.38" x2="28383.41" y2= "15268.05" />
  <line class="fil0 str0" x1="27642.28" y1="15076" x2="28201.49" y2= "14813.24" />
  <line class="fil0 str0" x1="27415.9" y1="14465.93" x2="27945.14" y2= "14201.31" />
  <line class="fil0 str0" x1="27430.02" y1="13730.74" x2="27821.1" y2= "13729.96" />
  <line class="fil0 str0" x1="27655.87" y1="13159.45" x2="27945.14" y2= "13291.68" />
  <line class="fil0 str0" x1="27997.68" y1="12782.59" x2="28209.76" y2= "12985.72" />
  <line class="fil0 str0" x1="34596.03" y1="16417.24" x2="34221.55" y2= "16467.1" />
  <line class="fil0 str0" x1="34673.28" y1="17020.28" x2="34229.82" y2= "17054.22" />
  <line class="fil0 str0" x1="34735.22" y1="17448.7" x2="34320.78" y2= "17517.3" />
  <line class="fil0 str0" x1="34913.09" y1="17878.81" x2="34643.28" y2= "17988.66" />
  <line class="fil0 str0" x1="35075.93" y1="18371.03" x2="34684.63" y2= "18402.12" />
  <line class="fil0 str0" x1="35147.71" y1="18873.47" x2="34725.98" y2= "18823.86" />
  <line class="fil0 str0" x1="35147.71" y1="19444.05" x2="34717.71" y2= "19444.05" />
  <line class="fil0 str0" x1="35098.82" y1="19956.85" x2="34692.9" y2= "19923.67" />
  <line class="fil0 str0" x1="34855.42" y1="20535.01" x2="34362.13" y2= "20304.06" />
  <line class="fil0 str0" x1="34440.23" y1="21011.23" x2="34171.93" y2= "20618.3" />
  <line class="fil0 str0" x1="33684.04" y1="21064.84" x2="33692.31" y2= "20634.84" />
  <line class="fil0 str0" x1="33204.35" y1="21079.38" x2="33179.62" y2= "20651.37" />
  <line class="fil0 str0" x1="32474.83" y1="21070.76" x2="32518.07" y2= "20667.91" />
  <line class="fil0 str0" x1="31970.1" y1="20816.14" x2="32377.49" y2= "20469.45" />
  <line class="fil0 str0" x1="31579.24" y1="20508.76" x2="31773.83" y2= "20155.22" />
  <line class="fil0 str0" x1="31212.86" y1="20487.66" x2="31145.36" y2= "20064.25" />
  <line class="fil0 str0" x1="30862.05" y1="20654.4" x2="30459.01" y2= "20337.14" />
  <line class="fil0 str0" x1="30393.4" y1="21132.71" x2="30202.66" y2= "20808.49" />
  <line class="fil0 str0" x1="29896.7" y1="21147.53" x2="29797.47" y2= "20734.07" />
  <line class="fil0 str0" x1="29301.14" y1="21142.4" x2="29235.15" y2= "20700.99" />
  <line class="fil0 str0" x1="28614.51" y1="21123.12" x2="28581.88" y2= "20717.53" />
  <line class="fil0 str0" x1="27993.47" y1="21087.28" x2="28003.03" y2= "20700.99" />
  <line class="fil0 str0" x1="27300.06" y1="21024.24" x2="27531.67" y2= "20651.37" />
  <line class="fil0 str0" x1="26498.01" y1="20556.28" x2="26853.59" y2= "20229.64" />
  <line class="fil0 str0" x1="26283" y1="20105.6" x2="26638.59" y2= "19890.6" />
  <line class="fil0 str0" x1="26211.57" y1="19518.68" x2="26547.63" y2= "19410.98" />
  <line class="fil0 str0" x1="26249.93" y1="18910.69" x2="26580.7" y2= "18881.74" />
  <line class="fil0 str0" x1="26291.28" y1="18509.62" x2="26704.74" y2= "18517.89" />
  <line class="fil0 str0" x1="26535.29" y1="17920.3" x2="26837.05" y2= "18096.16" />
  <line class="fil0 str0" x1="26933.66" y1="17545.75" x2="27242.25" y2= "17839.81" />
  <line class="fil0 str0" x1="27295.24" y1="17341.38" x2="27589.56" y2= "17674.42" />
  <line class="fil0 str0" x1="28044.37" y1="17194.8" x2="28011.29" y2= "17509.03" />
  <line class="fil0 str0" x1="28501" y1="17226.08" x2="28416.49" y2= "17624.81" />
  <line class="fil0 str0" x1="29036.56" y1="17234.97" x2="28970.53" y2= "17740.58" />
  <line class="fil0 str0" x1="29152.46" y1="17186.53" x2="29441.89" y2= "17649.61" />
  <line class="fil0 str0" x1="29145.59" y1="17106.32" x2="29640.35" y2= "17120.38" />
  <line class="fil0 str0" x1="29112.28" y1="16691.82" x2="29508.04" y2= "16690.37" />
  <line class="fil0 str0" x1="29078.04" y1="16326.52" x2="29441.89" y2= "16293.45" />
  <path class="fil0 str0" d="M36621.49 13806.75l396.88 -701.15 595.32 -701.15 1150.94 -767.3c0,0 1415.53,-264.58 1494.91,-277.81 79.38,-13.23 1217.1,66.14 1217.1,66.14l1124.49 542.4 608.54 1018.66 291.05 1375.84 264.58 1494.91 -39.68 1891.79 -39.69 1428.76 -238.13 1111.26 -489.48 595.32 -939.28 251.35 -780.53 -132.29 -396.88 -383.65 -423.33 -582.09 -211.67 -899.59 26.46 -978.96 132.29 -846.68 198.44 -793.75 171.98 -701.16 0 -767.29 -171.98 -621.78 -277.82 -396.88 -396.88 -92.6 -251.35 198.44 -277.82 370.42 -92.6 489.48 -145.52 529.17 -423.34 396.88 -555.63 158.75 -635.01 -13.23 -621.77 -343.96 -330.74 -542.4 -52.91 -793.76 119.06 -582.09z"/>
  <polyline class="fil0 str0" points="36516.76,14603.97 37150.66,14362.38 37838.58,14309.47 38367.76,14322.7 38976.3,14388.84 39348.32,14569.35 "/>
  <polyline class="fil0 str0" points="36550.13,15104.45 37335.87,14732.8 38169.32,14679.89 38896.93,14732.8 39290.46,14875.2 "/>
  <polyline class="fil0 str0" points="37151.12,12949.25 37984.11,13105.6 38486.82,13356.96 39002.76,13753.84 39498.86,14322.7 "/>
  <polyline class="fil0 str0" points="37418.61,12634.21 38169.32,12748.41 38738.18,13052.69 39148.28,13449.56 39399.64,13767.07 39671.22,14111.08 "/>
  <polyline class="fil0 str0" points="38764.63,11637.15 39267.35,12245.7 39545.16,12761.64 39703.91,13224.67 39763.44,14038.27 "/>
  <polyline class="fil0 str0" points="39295.08,11538.12 39637.77,12060.49 39849.44,12536.74 39994.96,13171.75 40011.66,13967.65 "/>
  <polyline class="fil0 str0" points="41159.67,11404.14 41106.22,12325.08 40828.4,13052.69 40524.13,13634.77 40286,14031.65 "/>
  <polyline class="fil0 str0" points="41476.64,11425.48 41516.33,12100.18 41172.36,12907.16 40973.93,13383.42 40424.91,14230.09 "/>
  <polyline class="fil0 str0" points="43011.86,12655.43 42495.29,13277.58 41926.43,13859.67 41331.12,14216.86 40563.82,14428.53 "/>
  <polyline class="fil0 str0" points="43250.98,13181.84 42693.73,13700.92 42085.18,14216.86 41370.8,14507.91 40617.98,14624.38 "/>
  <polyline class="fil0 str0" points="43601.95,14934.4 42429.15,15275.2 41727.99,15314.89 41185.59,15209.06 40735.8,15142.91 "/>
  <polyline class="fil0 str0" points="43678.48,15366.79 42693.73,15619.17 41952.89,15658.85 41344.35,15605.94 40735.8,15433.96 "/>
  <polyline class="fil0 str0" points="43749.47,16611.59 42852.48,16730.42 42045.5,16637.82 41370.8,16492.3 40679.2,16048.34 "/>
  <polyline class="fil0 str0" points="43742.29,16954.29 42826.02,17061.16 41926.43,16942.09 41304.66,16730.42 40881.32,16492.3 40611.92,16322.64 "/>
  <polyline class="fil0 str0" points="43708.7,18357.9 42759.88,18384.08 41966.12,18212.1 41304.66,17947.52 40815.17,17669.7 40394.95,17194.23 "/>
  <polyline class="fil0 str0" points="43698.05,18741.24 42826.02,18701.59 41820.6,18542.83 41172.36,18212.1 40788.72,17921.06 40333.09,17519.14 "/>
  <polyline class="fil0 str0" points="43545.56,19832.85 42508.52,19799.62 41820.6,19707.01 41198.82,19389.51 40696.11,19058.78 40219.86,18648.67 "/>
  <polyline class="fil0 str0" points="43470.64,20182.5 42680.5,20156.81 41807.37,19905.45 41212.05,19627.64 40682.88,19283.67 40211.28,18965.94 "/>
  <line class="fil0 str0" x1="37825.35" y1="16075.58" x2="37865.04" y2= "15725" />
  <line class="fil0 str0" x1="37371.86" y1="15993.74" x2="37468.17" y2= "15632.39" />
  <line class="fil0 str0" x1="36785.82" y1="15560.59" x2="37203.58" y2= "15288.43" />
  <line class="fil0 str0" x1="36547.17" y1="14170.09" x2="36938.99" y2= "14084.57" />
  <line class="fil0 str0" x1="36689.33" y1="13686.9" x2="37137.43" y2= "13648" />
  <line class="fil0 str0" x1="36914.03" y1="13289.92" x2="37375.56" y2= "13264.35" />
  <line class="fil0 str0" x1="37708.32" y1="12341.36" x2="38023.79" y2= "12417.68" />
  <line class="fil0 str0" x1="38189.16" y1="12020.8" x2="38394.21" y2= "12272.16" />
  <line class="fil0 str0" x1="38489.87" y1="11820.33" x2="38698.49" y2= "12047.26" />
  <line class="fil0 str0" x1="39575.47" y1="11485.85" x2="39770.06" y2= "11835.59" />
  <line class="fil0 str0" x1="39974.27" y1="11411.7" x2="40047.88" y2= "11729.76" />
  <line class="fil0 str0" x1="40446.37" y1="11362.4" x2="40484.44" y2= "11729.76" />
  <line class="fil0 str0" x1="41812.62" y1="11587.55" x2="41780.91" y2= "12034.03" />
  <line class="fil0 str0" x1="42265.51" y1="11806" x2="42085.18" y2= "12219.24" />
  <line class="fil0 str0" x1="42668.6" y1="12080.83" x2="42429.15" y2= "12523.51" />
  <line class="fil0 str0" x1="43390.17" y1="13839.81" x2="43011.23" y2= "14111.03" />
  <line class="fil0 str0" x1="43500.72" y1="14362.38" x2="43143.53" y2= "14468.22" />
  <line class="fil0 str0" x1="43547.33" y1="14625.75" x2="43289.05" y2= "14772.49" />
  <line class="fil0 str0" x1="43765.3" y1="15857.29" x2="43381.65" y2= "15976.36" />
  <line class="fil0 str0" x1="43754.46" y1="16373.84" x2="43302.28" y2= "16439.38" />
  <line class="fil0 str0" x1="43735.62" y1="17272.2" x2="43381.65" y2= "17312.51" />
  <line class="fil0 str0" x1="43727.29" y1="17669.46" x2="43289.05" y2= "17682.93" />
  <line class="fil0 str0" x1="43716.05" y1="18093.51" x2="43328.74" y2= "18106.27" />
  <line class="fil0 str0" x1="43690.66" y1="19007.47" x2="43275.82" y2= "19019.09" />
  <line class="fil0 str0" x1="43651.08" y1="19340.47" x2="43262.59" y2= "19376.28" />
  <line class="fil0 str0" x1="43203.06" y1="20586.76" x2="42826.02" y2= "20527.23" />
  <line class="fil0 str0" x1="42680.11" y1="20958.87" x2="42455.6" y2= "20725.67" />
  <line class="fil0 str0" x1="42143.35" y1="21102.51" x2="42124.87" y2= "20805.04" />
  <line class="fil0 str0" x1="41785.37" y1="21096.17" x2="41794.14" y2= "20871.19" />
  <line class="fil0 str0" x1="41138.2" y1="20906.53" x2="41423.72" y2= "20619.83" />
  <line class="fil0 str0" x1="40775.84" y1="20529.38" x2="41106.22" y2= "20289.1" />
  <line class="fil0 str0" x1="40525.27" y1="20184.84" x2="40801.94" y2= "19958.37" />
  <line class="fil0 str0" x1="40335.19" y1="19684.54" x2="40709.34" y2= "19601.18" />
  <line class="fil0 str0" x1="40233.09" y1="18159.19" x2="40629.96" y2= "18450.23" />
  <line class="fil0 str0" x1="40285.42" y1="17824.23" x2="40603.51" y2= "18079.81" />
  <line class="fil0 str0" x1="40464.6" y1="16915.64" x2="40775.49" y2= "17100.84" />
  <line class="fil0 str0" x1="40563.82" y1="16518.76" x2="40841.63" y2= "16809.8" />
  <line class="fil0 str0" x1="38490.56" y1="15982.85" x2="38328.07" y2= "15698.54" />
  <line class="fil0 str0" x1="38910.16" y1="15725" x2="38645.57" y2= "15539.79" />
  <line class="fil0 str0" x1="39174.42" y1="15335.31" x2="38883.7" y2= "15182.6" />
 </g>
</svg>
