<?xml version="1.0" encoding="UTF-8"?>
<!DOCTYPE svg PUBLIC "-//W3C//DTD SVG 1.1//EN" "http://www.w3.org/Graphics/SVG/1.1/DTD/svg11.dtd">
<!-- Creator: CorelDRAW 2018 (64-Bit) -->
<svg xmlns="http://www.w3.org/2000/svg" xml:space="preserve" width="500mm" height="500mm" version="1.1" style="shape-rendering:geometricPrecision; text-rendering:geometricPrecision; image-rendering:optimizeQuality; fill-rule:evenodd; clip-rule:evenodd"
viewBox="0 0 50000 50000"
 xmlns:xlink="http://www.w3.org/1999/xlink">
 <defs>
  <style type="text/css">
   <![CDATA[
    .fil1 {fill:none}
    .fil0 {fill:black;fill-rule:nonzero}
   ]]>
  </style>
 </defs>
 <g id="Слой_x0020_1">
  <metadata id="CorelCorpID_0Corel-Layer"/>
  <g id="_1737108132224">
   <path class="fil0" d="M18798.46 3417.2c-80.88,-111.93 -159.75,-207.6 -255.51,-307.22 -229.77,-231.17 -432.09,-373.87 -732.89,-501.51 -321.38,-122.53 -578.28,-157.89 -921.04,-142.78 -370.06,33.13 -651.97,116.53 -993.89,257.85 -154.22,67.15 -303.22,136.84 -453.22,212.97 -463.32,251.12 -1115.7,618.23 -1354.83,1123.84 -22.64,37.43 -44.04,74.01 -69.04,110.03 -72.33,103.49 57.49,-125.71 57.54,-125.8 19.29,-46.87 120.19,-252.99 -5.29,-131.12 -17.31,17.67 -34.41,35.41 -51.42,53.37 -151.22,148.46 -280.74,292 -402.65,465.16 -102.97,145.76 -210.87,404.61 -191.01,587.25 43.56,238.3 -11.07,-205.2 -70.98,-98.15 -52.8,137.64 -109.4,315.3 -106.81,463.93 0,0.78 0.05,8.66 0.03,8.68 0.71,119.4 17.85,309.04 81.26,415.15 156.86,163.26 -58.59,20.83 -53.48,125.88 11.09,48.29 23.64,94.51 38.41,141.8 81.76,218.6 175.13,396.28 315.51,581.33 -166.99,-186.8 -276.65,-347.65 -375.26,-578.9 -88.99,-251.57 -115.63,-449.94 -95.47,-716.35 66.25,-626.23 359.34,-1047.51 798.18,-1481.14 577.61,-572.37 1178.77,-895.03 1922.65,-1206.55 348.6,-135.33 635.44,-213.63 1009.81,-238.89 346.09,-9.3 605.18,30.14 927.31,158.66 300.29,132.46 501.85,277.74 729.76,512.42 94.55,100.7 172.62,197.41 252.33,310.09 90.84,130.29 165.37,254.47 239.2,394.91 349.59,699.88 469.78,1286.84 594.44,2052.23 -118.15,-744.5 -268.2,-1361.51 -596.82,-2051.05 -72.97,-141.05 -146.44,-265.34 -236.82,-396.09zm1657.86 16221.34c-177.16,-108.81 -418.78,-168.37 -619.05,-250.86 -2.41,-1.03 -5.01,-2.27 -7.43,-3.18 -166.31,-72.3 -317.43,-152.42 -467.13,-255.78 -59.67,-42.8 -110.39,-83.6 -160.63,-137.49 -37.01,-40.96 -65.32,-78.65 -83.59,-131.31 -163.87,-688.14 66.04,-2531.8 141.87,-3240.48 414.95,-2738.69 914.13,-5742.64 670.4,-8496.41 -127.44,-944.7 -225.52,-1877.05 -547.48,-2780.05 -76.32,-200.45 -155.79,-385.44 -252.61,-576.87 -146.39,-281.82 -285.95,-500.83 -494.14,-740.75 -239.05,-260.99 -439.77,-421.32 -745.6,-593.39 -127.01,-69.25 -430.75,-290.05 -524.62,-314.1 100.64,85.83 193.8,180.43 276.58,283.65 -254.12,-97.81 -481.2,-134.9 -753.61,-151 -399.79,-15.08 -717.21,36.71 -1101.35,144.72 -251.11,73.25 -510.35,154.63 -749.9,260.47 -420.52,204.96 614.59,-148.69 676.77,-166.2 -552.1,175.15 -1100.65,393.14 -1606.05,677.64 253.88,-119.4 515.62,-222.44 781.12,-312.96 -443.75,188.23 -810.93,375.98 -1210.22,647.61 -294.62,210.57 -519.13,405.15 -758.06,678.22 253.2,-257.58 487.74,-438.5 792.38,-631.18 114.03,-66.65 226.92,-127.32 345.08,-186.29 -112.5,67.41 -218.62,136.82 -326.18,212.2 -582.24,428.09 -988.34,866.94 -1233.82,1557.63 -43.51,138.69 -104.86,371.39 -94.49,518.59 9.59,42.4 120.14,-389.31 158.82,-496.13 270.22,-667.18 650.22,-1083.37 1221.55,-1508.72 80.08,-57.5 159.93,-112.14 242.7,-165.54 -78.39,59.6 -153.67,120.87 -228.65,184.81 -529.68,447.4 -868.38,872.98 -1076.99,1544.83 -84.36,317.11 -104.78,566.89 -75.96,893.43 41.51,338.19 118.44,594.08 254.3,904.7 58.96,123.46 119.94,235.86 186.35,354.79 165.8,273.45 -31.78,-325.39 -49.99,-406.65 -18.99,-74.98 -35.54,-148.17 -50.04,-224.05 32.3,70.42 67.68,135.44 102.3,204.18 192.9,312.4 390.61,555.76 640.78,823.57 -217.3,-284.69 -383.1,-538.86 -535.96,-863.44 -101.69,-237.64 -164.8,-437.51 -205.62,-693.15 61.38,250.25 140.07,444.74 258.93,672.88 238.83,395.52 492.64,691.24 816.57,1018.83 -293.1,-343.9 -516.55,-650.06 -715.1,-1057.42 -93.25,-212.9 -153.26,-393.71 -195.06,-622.66 73.75,214.29 171.8,393.86 293.32,585.29 276.86,347.4 1201.31,1239.34 1619.95,1319.94 -279.78,-244.49 -550.32,-505.46 -792.84,-787.28 55.59,6.54 111.23,12.54 166.92,18.1 -234.5,-222.54 -431.62,-431.13 -624.11,-691.44 -122.61,-198.49 -207.88,-368.66 -275.57,-592.55 -0.02,-0.06 -0.04,-0.12 -0.05,-0.18 0.07,0.04 0.24,0.13 0.3,0.17 109.87,54.59 211.48,95.8 327.99,134.03 -50.87,-44.9 -96.87,-91.23 -142.5,-141.56 -123.88,-159.45 -254.16,-383.31 -262.31,-590.23 -0.87,-2.82 0.17,-23.45 8.59,-20.38 8.08,2.95 54.53,39.97 55.38,42.72 173.19,160.04 320.16,278.62 534.35,381.34 -47.9,-77.78 -77.98,-143.71 -104.52,-231.26 -82.16,-268.63 -55.95,-490.7 24.05,-756.43 88.63,66.93 176.35,135.06 263.19,204.31 62.03,-180.75 137.63,-320.05 243.02,-478.97 185.71,-336.04 391.6,-581.17 661.81,-852.03 6.11,120.21 14.74,240.28 26.17,360.1 284.49,-276.53 602.35,-503.71 944.4,-703.59 36.53,-26.55 242.26,-131.27 290.52,-124.89 132.39,36.59 -11.13,214.31 -59.15,275.56 177.48,-123.5 338.37,-222.93 535.68,-312.61 236.57,-79.14 419.44,-110.42 669.46,-93.77 243.68,30.06 418.96,94.03 632.56,213.79 -64.3,114.18 -596.79,28.05 -717.61,22.49 -4.58,-0.11 -19.79,0.37 -23.07,-0.3 -89.81,3.71 -101.7,7.59 -5.64,12.31 221.43,18.96 375.89,72.35 572.29,178.52 227.42,126.12 387.86,263.52 566.7,450.65 127.26,122.72 237.15,243.01 347.97,379.94 115.13,143.61 222.15,293.9 323.46,447.52 -186.92,-74.68 -376.97,-142.44 -570.16,-199.12 238.94,388.43 431.49,813.17 609.25,1232.57 -44.55,5.12 -89.1,10.3 -133.65,15.46 43.23,132.5 324.52,1015.2 297.38,1071.7 -39.27,-26.14 -33.27,222.03 -34.16,234.73 -2.12,30.1 -0.44,101.16 -0.58,99.37 -21.44,-27.55 -45.67,-60.56 -68.76,-86.15 -24.54,-34.35 -48.9,-68.82 -73.18,-103.36 6.29,37.91 12.62,75.8 19.04,113.69 11.22,68.31 21.44,136.47 30.84,205.06 212.79,650.22 335.9,1358.58 427.07,2035.67 -75.62,2059.75 -346.82,4135.66 -578.19,6183.84 -85.12,675.81 -185.33,1411.55 -215.91,2088.5 -13.9,368.21 -20.63,777.17 64.17,1135.81 23.8,67.29 57.15,113.59 104.54,166.17 55.09,59.25 109.87,104.03 175.14,151.45 154.63,109.5 308.4,191.12 478.61,273.02 308.59,141.39 592.26,244.85 902.66,367.47 -51.06,-86.25 -149.84,-158.76 -231.99,-211.88z"/>
  </g>
  <path class="fil1" d="M14469.72 8692.46c-2492.24,-2601.36 -1525.1,-4452.11 1588.69,-5468.89 2483.29,-810.89 2701.93,1883.65 3113.9,4044.09 604.49,3170.01 -551.65,10306.83 -90.06,11605.14 135.91,382.29 1281.72,754.36 1640.37,878.51"/>
  <g id="_1737031103696">
   <path class="fil0" d="M26898.32 4583.05c-16.78,-137.07 -39.65,-258.93 -75.4,-392.41 -89.59,-313.38 -197.85,-536.04 -399.63,-793.06 -222.26,-262.48 -430.16,-417.49 -737.6,-569.77 -340.06,-149.68 -627.2,-212.77 -994.86,-254.12 -167.47,-15.66 -331.6,-26.58 -499.71,-32.34 -526.99,-3.82 -1275.54,2.64 -1729.08,329.94 -37.9,21.84 -74.31,43.54 -113.59,63.01 -113.31,55.7 111.04,-82.32 111.13,-82.38 39.52,-31.73 227.41,-163.5 58.68,-117.37 -23.69,7.11 -47.23,14.39 -70.8,21.9 -204.11,56.99 -386.84,120.15 -577.21,212.92 -160.55,77.92 -380.03,252.49 -450.83,422.02 -76.92,229.71 89.39,-185.04 -14.76,-120.23 -112.7,95.04 -248.05,223.28 -317.55,354.69 -0.37,0.68 -4.14,7.61 -4.16,7.61 -57.04,104.9 -133.6,279.25 -129.31,402.79 58.53,218.7 -61.36,-10.05 -107.61,84.4 -13.61,47.65 -24.94,94.18 -34.84,142.73 -33.95,230.9 -37.99,431.58 -4.41,661.41 -56.03,-244.21 -74.39,-438.02 -49.08,-688.14 43.54,-263.27 116,-449.84 262.3,-673.4 360.4,-516.4 820.47,-743.79 1414.15,-911.61 782.19,-222.32 1464.42,-214.59 2266.26,-128.19 370.61,49.82 659.6,119.76 999.63,278.41 307.56,158.97 515.4,318.61 735.43,586.7 199,261 305.36,485.54 391.62,801.1 34.17,133.84 55.84,256.23 71.23,393.39 16.63,157.96 21.94,302.69 18.78,461.32 -31.82,781.69 -209.99,1353.72 -470.41,2084.16 256.03,-709 422.57,-1321.77 467.75,-2084.28 4.21,-158.75 -0.11,-303.06 -16.12,-461.2zm-6380.95 15005.46c-102.6,-180.83 -285.43,-349.66 -420.97,-518.6 -1.61,-2.06 -3.29,-4.4 -4.97,-6.37 -110.73,-143.62 -204.38,-286.75 -285.56,-449.55 -31.58,-66.29 -56.3,-126.51 -74.27,-197.96 -12.63,-53.74 -19.22,-100.41 -9.8,-155.35 188.78,-681.73 1280.36,-2185.19 1688.96,-2769.16 1685.79,-2197.89 3573.42,-4587.4 4689.69,-7116.55 344.56,-888.8 708.88,-1752.62 862.97,-2698.83 29.95,-212.39 49.69,-412.76 57.34,-627.14 7.89,-317.48 -8.57,-576.65 -75.04,-887.27 -83.31,-343.98 -181.66,-581.3 -366.39,-879.66 -77.78,-121.97 -237.15,-461.99 -307.73,-528.37 46.68,123.75 82.58,251.58 105.23,381.94 -175.3,-208.36 -356.25,-350.49 -587.02,-496.13 -342.81,-206.25 -645.78,-314.16 -1034.33,-405.07 -255.26,-57.11 -521.57,-111.02 -782.45,-134.01 -467.22,-23.57 609.99,166.56 672.9,181.25 -568.05,-113.21 -1153.67,-187.2 -1733.62,-182.1 279.97,18.03 558.93,54.19 835.14,103.12 -479.48,-49.44 -891.68,-62.33 -1372.49,-17.27 -359.68,42.14 -650.24,104.12 -991.32,227.87 346.1,-103.3 638.85,-148.47 998.66,-170.1 132.03,-3.31 260.19,-1.92 392.13,3.49 -131.06,4.71 -257.51,14.25 -388.09,28.32 -716.58,93.73 -1284.1,281.94 -1832.58,768.24 -105.07,100.44 -271.16,274.59 -333.15,408.5 -12.08,41.76 293.19,-282.9 378.64,-357.77 558.79,-453.76 1092.51,-634.73 1798.21,-731.33 97.89,-11.69 194.2,-20.98 292.47,-27.77 -97.43,14.34 -192.94,31.64 -289.47,51.43 -679.87,136.02 -1181.97,345.15 -1689.06,832.75 -226.99,236.96 -365.49,445.83 -497.92,745.7 -126.95,316.19 -183.15,577.42 -214.16,915.03 -7.99,136.58 -8.86,264.46 -8.13,400.67 13.15,319.52 129.29,-300.29 152.58,-380.24 19.57,-74.83 40.42,-146.91 64.36,-220.36 -5.71,77.26 -6.13,151.28 -9,228.2 18.07,366.71 73.69,675.28 163.45,1030.6 -52.82,-354.23 -75.28,-656.86 -52.41,-1014.9 25.7,-257.21 66.94,-462.71 154.64,-706.28 -67.09,248.78 -92.1,457.09 -98.17,714.27 18.16,461.67 97.62,843.19 223.11,1286.47 -90.61,-442.67 -138.45,-818.67 -115.62,-1271.27 21.14,-231.46 55.9,-418.77 129.85,-639.45 -38.89,223.27 -39.74,427.86 -25.76,654.17 74.7,437.9 453.55,1665.36 781.23,1938.08 -126.95,-349.19 -237.85,-708.35 -314.14,-1072.25 45.52,32.57 91.35,64.69 137.43,96.45 -97.89,-308.11 -169.79,-585.95 -212.65,-906.85 -11.53,-233.02 -4.03,-423.21 44.8,-651.95 0.01,-0.07 0.03,-0.13 0.05,-0.19 0.04,0.07 0.14,0.23 0.18,0.3 69.85,100.85 138.93,186.01 222.5,275.74 -22.87,-63.88 -40.78,-126.66 -56.43,-192.77 -31.49,-199.45 -37.48,-458.39 55.29,-643.52 0.6,-2.89 11.48,-20.45 17.37,-13.7 5.65,6.48 28.45,61.33 27.87,64.15 74.38,223.77 145.82,398.58 283.79,591.96 -4.39,-91.24 1.1,-163.5 20.14,-252.98 57.76,-274.91 187.94,-456.72 386.31,-650.79 45.3,101.4 89.21,203.42 131.82,306 141.6,-128.33 275.06,-213.81 444.09,-302.09 324.89,-204.6 623.55,-319.84 990.96,-426.55 -52.7,108.22 -103.12,217.53 -150.96,327.97 382.65,-104.78 770.7,-150.24 1166.74,-160.11 44.81,-5.61 275.53,2.03 314.71,30.92 98.27,95.97 -113.23,182.29 -184.85,212.74 215.05,-22.45 403.95,-31.83 620.04,-15.09 245.38,44.93 420.62,105.84 631.52,241.15 198.87,143.99 321.48,284.64 450.7,492.65 -111.44,68.94 -536.15,-263.6 -639.27,-326.81 -3.96,-2.31 -17.51,-9.23 -20.06,-11.4 -80.44,-40.12 -92.72,-42.46 -10.88,8.05 184.75,123.53 294.23,244.86 414.95,432.67 138.25,220.26 212.4,418.05 278.65,668.27 52.19,168.92 90.33,327.32 121.26,500.74 31.47,181.35 52.62,364.63 67.16,548.08 -127.63,-155.66 -261.33,-306.76 -403.14,-449.68 21.68,455.52 -14.8,920.44 -61.65,1373.54 -41.48,-17.03 -83,-34.01 -124.5,-51 -26.12,136.9 -206.03,1045.71 -257.07,1082.08 -21.77,-41.86 -136.35,178.36 -143.26,189.05 -16.39,25.34 -49.23,88.38 -48.49,86.74 -5.47,-34.48 -10.75,-75.08 -18.62,-108.64 -4.9,-41.93 -9.59,-83.88 -14.17,-125.85 -12.8,36.24 -25.55,72.47 -38.22,108.75 -23.16,65.24 -47.13,129.86 -72.01,194.46 -127.63,672.15 -361.87,1351.9 -608.98,1988.85 -1060.8,1767.19 -2300.67,3454.1 -3492.28,5135.96 -400.86,550.7 -843.88,1146.6 -1197.54,1724.63 -189.96,315.73 -393.33,670.61 -492.25,1025.61 -11.65,70.42 -4.8,127.07 11.31,195.99 19.63,78.49 45.98,144.16 80.24,217.2 82.53,170.55 177.78,316.28 287.28,470.18 201.96,272.83 400.41,500.4 613.02,757.66 -3.07,-100.18 -54.56,-211.38 -100.84,-297.56z"/>
  </g>
  <path class="fil1" d="M20560.42 7112.36c-926.33,-3481.41 814.25,-4635.1 4031.95,-4021.95 2566.15,489 1456.51,2954.17 774.07,5044.98 -1001.34,3067.85 -5459.89,8759.26 -5682.59,10119.07 -65.58,400.4 758.14,1279.49 1012.26,1561.39"/>
  <g id="_1737031103280">
   <path class="fil0" d="M33551.38 10092.53c55.32,-126.55 97.63,-243.08 134.79,-376.17 82.34,-315.39 102.48,-562.1 59.56,-886.07 -57.75,-339.04 -157.84,-578.3 -345,-865.82 -216.59,-301.95 -431.6,-502.28 -727.08,-725.02 -136.2,-98.71 -271.93,-191.63 -413.72,-282.15 -451.77,-271.49 -1099.3,-646.79 -1656.35,-595.88 -43.71,-0.47 -86.16,-0.3 -129.85,-3.56 -125.9,-9.69 137.5,-14.35 137.59,-14.36 50.22,-7.2 278.93,-25 110.24,-71.17 -24.01,-5.94 -47.98,-11.66 -72.1,-17.17 -204.61,-54.82 -394.21,-93.44 -605.22,-110.46 -177.85,-14.63 -455.64,23.97 -602.85,133.87 -183.12,158.59 171.12,-113.79 48.47,-111 -145.38,24.46 -327.15,65.98 -453.85,143.73 -0.67,0.39 -7.43,4.44 -7.46,4.45 -102.39,61.19 -257.2,172.45 -316.28,280.91 -60.93,218.06 -47.7,-39.88 -135.59,17.9 -35.94,34.08 -69.41,68.39 -102.62,105.13 -147.52,182.46 -251.63,351.37 -340.39,567.13 76.06,-238.74 158.86,-414.93 307.94,-617.36 171.47,-204.46 328.77,-328.2 568.47,-446.2 573.07,-261.16 1084.78,-222.73 1681.27,-65.11 786.51,206.69 1369.78,560.48 2016.1,1042.92 293.69,231.48 506.87,438.75 718.85,748.36 183.87,293.39 281.51,536.54 334.51,879.31 38.49,325.97 15.76,573.33 -70.55,888.9 -38.67,132.58 -82.33,249.01 -138.88,374.89 -65.97,144.32 -135.19,271.87 -218.59,406.67 -425.13,656.72 -869.69,1058.48 -1465.53,1554.74 581.18,-480.06 1036.4,-922.77 1463.3,-1556.19 84.38,-134.37 154.22,-261.06 220.82,-405.22zm-13129 9670.03c3.7,-207.88 -67.76,-446.25 -98.47,-660.65 -0.34,-2.6 -0.59,-5.47 -1.04,-8.02 -22.23,-179.97 -30.01,-350.84 -17.05,-532.3 6.55,-73.14 15.92,-137.55 36.8,-208.2 16.48,-52.69 34.56,-96.23 70.63,-138.72 509.43,-490.79 2214.18,-1229.54 2863.1,-1524.31 2569.66,-1034.14 5410.58,-2130.52 7658.55,-3739.64 748.96,-589.81 1502.05,-1147.94 2116.27,-1884.1 133.85,-167.55 252.85,-330.05 368.5,-510.69 168.3,-269.13 286.13,-500.9 386.93,-801.97 103.33,-338.54 139.43,-592.81 132.24,-943.69 -4.88,-144.56 30.95,-518.37 3.98,-611.43 -22.78,130.27 -56.94,258.61 -103.77,382.34 -45.16,-269.1 -128.01,-482.4 -252.86,-725.82 -190.15,-352 -396.04,-599.08 -684.25,-875.05 -190.73,-179.08 -392.46,-360.97 -605.37,-513.54 -390.2,-258.05 440.34,453.79 487.02,498.45 -431.38,-386.53 -897.86,-748.23 -1399.7,-1038.97 231.85,158 453.58,331.08 666.44,513.76 -387.57,-286.59 -735.88,-507.39 -1172.69,-713.31 -330.92,-146.69 -612.86,-241.32 -969.32,-308.3 350.51,87.18 625.51,197.31 946.24,361.76 115.33,64.34 224.98,130.76 335.79,202.56 -115.16,-62.63 -228.99,-118.81 -348.51,-173.11 -664.52,-283.98 -1248.9,-410.74 -1968.48,-271.25 -141.59,33.02 -373.12,98.37 -494.67,182.11 -31.65,29.81 396.36,-94.33 508,-115.29 711.92,-106.25 1263.52,9.57 1920.13,285.53 89.96,39.63 178.14,80.72 265.9,124.93 -91.19,-37.24 -182.15,-70.93 -275.35,-103.04 -654.47,-228.89 -1193.14,-304.36 -1877.78,-142.67 -316.06,88.52 -541.43,197.74 -808.1,388.53 -270.11,207.53 -451.58,403.92 -650,678.72 -76.39,113.48 -142.21,223.15 -210.9,340.76 -151.27,281.74 264.1,-192.7 324.85,-249.68 54.75,-54.26 109.62,-106.15 167.55,-156.94 -44.24,63.61 -82.27,127.11 -123.88,191.86 -171.05,324.81 -280.23,618.87 -383.76,970.36 134.8,-331.83 269.46,-603.75 471.36,-900.34 153.02,-208.35 293.06,-364.22 492.53,-529.29 -184.36,180.02 -311.89,346.62 -447.99,564.91 -219.31,406.68 -345.05,775.52 -462.61,1220.98 147.24,-427.1 297.46,-775.29 547.41,-1153.19 135.99,-188.5 261.22,-332.05 437.18,-484.38 -147,172.18 -252.06,348.32 -355.07,550.02 -158.54,414.97 -457.05,1664.4 -313.76,2065.92 68.42,-365.2 155.73,-730.81 275.24,-1082.89 22.61,51.21 45.71,102.18 69.22,152.97 72.49,-315.01 152.04,-590.86 278.42,-888.87 108.67,-206.47 211.89,-366.33 370.34,-538.42 0.03,-0.04 0.1,-0.1 0.14,-0.14 0,0.08 0.01,0.28 0,0.35 8.79,122.32 24.96,230.86 51.22,350.59 12.83,-66.63 29.34,-129.78 49.52,-194.66 74.36,-187.69 201.01,-413.66 375.07,-525.82 1.99,-2.18 20.28,-11.77 21.92,-2.95 1.57,8.45 -6.72,67.28 -8.65,69.41 -49.87,230.59 -77.28,417.2 -56.94,653.98 42.66,-80.82 84.14,-140.13 146.07,-207.52 189.68,-207.31 394.16,-297.48 663.73,-363.64 -12.61,110.35 -26.72,220.52 -42.24,330.5 187.27,-38.4 345.5,-44.09 536.01,-34.05 383.74,-10.8 699.59,41.99 1070.12,137.09 -100.43,66.34 -199.46,134.78 -296.85,205.51 382.72,104.52 739.9,262.86 1085.85,455.91 41.43,17.97 236.16,141.96 255.18,186.76 35.76,132.63 -190.24,99.3 -267.39,89.07 196.55,90.12 363.91,178.16 541.42,302.53 188.37,163.57 308.23,305.14 420.93,528.97 97.93,225.27 131.86,408.51 137.27,653.45 -131.03,2.63 -327.39,-499.75 -384,-606.66 -2.23,-4 -10.37,-16.85 -11.47,-20.01 -48.79,-75.48 -58.2,-83.74 -13.45,1.4 96.16,200.38 128.68,360.46 137.01,583.61 6.95,259.92 -29.91,467.99 -100.2,717.07 -40.91,171.47 -88.78,328.19 -150.44,492.77 -65.19,172.13 -140.25,340.66 -221.09,505.98 -30.66,-198.95 -68.85,-397.06 -118.2,-592.25 -213.15,403.15 -481.14,784.81 -752.05,1151.02 -27.03,-35.78 -54.13,-71.52 -81.21,-107.27 -92.21,104.58 -709.45,795.34 -771.95,800.67 2.56,-47.1 -208.15,84.16 -219.53,89.85 -27,13.46 -87.35,51.02 -85.88,49.99 12.83,-32.47 28.95,-70.11 39.26,-103 17.12,-38.59 34.43,-77.08 51.84,-115.55 -29.46,24.67 -58.87,49.39 -88.25,74.17 -53.13,44.37 -106.64,87.81 -160.94,130.75 -451.92,513.66 -999.47,979.61 -1536.32,1402.17 -1812.49,981.44 -3738.25,1802.63 -5619.9,2644.04 -625.32,270.07 -1309.93,557.59 -1908.52,875.21 -324.2,175.12 -679.85,377.11 -945.66,632.38 -45.87,54.69 -68.8,106.94 -90.01,174.47 -23.04,77.55 -33.77,147.49 -41.45,227.8 -15.74,188.82 -7.91,362.73 8.03,550.95 35.02,337.62 90.04,634.52 142.15,964.17 48.34,-87.81 60.6,-209.73 64.61,-307.47z"/>
  </g>
  <path class="fil1" d="M26808.38 9044.58c974.23,-3468.32 3059.68,-3575.7 5517.55,-1410.43 1960.19,1726.83 -249.51,3284.25 -1900.97,4736.81 -2423.17,2131.33 -9157.53,4761.8 -10041.22,5819.04 -260.21,311.3 1.52,1487.23 76.82,1859.22"/>
  <g id="_1737031110608">
   <path class="fil0" d="M33551.39 10092.53c55.31,-126.54 97.64,-243.08 134.78,-376.17 82.36,-315.36 102.47,-562.12 59.57,-886.06 -57.76,-339.06 -157.84,-578.29 -345.01,-865.83 -216.56,-301.9 -431.64,-502.33 -727.08,-725.02 -136.2,-98.71 -271.93,-191.63 -413.72,-282.15 -451.7,-271.46 -1099.37,-646.82 -1656.35,-595.88 -43.74,-0.48 -86.12,-0.33 -129.85,-3.56 -125.88,-9.71 137.49,-14.35 137.59,-14.36 50.17,-7.2 278.97,-25.02 110.24,-71.17 -24.01,-5.94 -47.98,-11.65 -72.09,-17.18 -204.7,-54.81 -394.14,-93.43 -605.23,-110.45 -177.86,-14.62 -455.63,23.97 -602.85,133.87 -183.11,158.6 171.12,-113.8 48.47,-111 -145.37,24.46 -327.15,65.98 -453.85,143.73 -0.67,0.39 -7.43,4.44 -7.46,4.43 -102.48,61.28 -257.1,172.4 -316.28,280.93 -60.91,218.06 -47.71,-39.88 -135.59,17.9 -35.96,34.09 -69.39,68.38 -102.62,105.13 -146.73,181.49 -252.33,352.19 -340.38,567.12 76.04,-238.74 158.86,-414.92 307.93,-617.35 171.46,-204.47 328.78,-328.21 568.48,-446.21 573.03,-261.13 1084.8,-222.74 1681.26,-65.1 786.47,206.67 1369.82,560.5 2016.1,1042.92 293.69,231.48 506.87,438.75 718.85,748.36 183.86,293.36 281.53,536.56 334.51,879.31 38.49,325.94 15.78,573.36 -70.55,888.9 -38.69,132.6 -82.32,248.98 -138.87,374.89 -66.06,144.44 -135.15,271.73 -218.59,406.67 -425.18,656.72 -869.66,1058.47 -1465.54,1554.74 581.2,-480.05 1036.38,-922.79 1463.31,-1556.19 84.41,-134.51 154.13,-260.94 220.82,-405.22zm-13129.01 9670.03c3.7,-207.88 -67.76,-446.25 -98.47,-660.65 -0.34,-2.6 -0.59,-5.47 -1.04,-8.02 -22.23,-179.97 -30.01,-350.84 -17.05,-532.3 6.55,-73.14 15.92,-137.55 36.8,-208.2 16.48,-52.69 34.56,-96.23 70.63,-138.72 509.43,-490.79 2214.18,-1229.54 2863.1,-1524.31 2569.66,-1034.14 5410.58,-2130.52 7658.55,-3739.64 748.91,-589.77 1502.11,-1147.98 2116.27,-1884.1 133.87,-167.58 252.82,-330.02 368.5,-510.68 168.35,-269.28 286.07,-500.76 386.93,-801.98 103.33,-338.5 139.44,-592.84 132.25,-943.68 -4.89,-144.58 30.95,-518.38 3.97,-611.45 -22.79,130.29 -56.93,258.59 -103.78,382.34 -44.87,-268.57 -128.31,-483 -252.85,-725.81 -190.15,-352 -396.04,-599.07 -684.25,-875.05 -190.68,-179.06 -392.49,-361 -605.37,-513.54 -390.2,-258.05 440.34,453.79 487.02,498.45 -431.38,-386.53 -897.86,-748.23 -1399.69,-1038.97 231.84,158 453.57,331.08 666.44,513.76 -387.59,-286.56 -735.87,-507.42 -1172.7,-713.31 -331.06,-146.76 -612.73,-241.26 -969.32,-308.31 350.5,87.21 625.5,197.29 946.24,361.77 115.35,64.35 224.96,130.76 335.79,202.56 -115.22,-62.64 -228.92,-118.77 -348.5,-173.11 -664.55,-283.97 -1248.87,-410.76 -1968.49,-271.25 -141.56,32.99 -373.16,98.39 -494.67,182.11 -31.65,29.81 396.36,-94.33 508.01,-115.29 711.94,-106.26 1263.48,9.57 1920.13,285.53 90.21,39.76 177.85,80.77 265.9,124.92 -91.17,-37.23 -182.19,-70.94 -275.36,-103.03 -654.47,-228.88 -1193.12,-304.37 -1877.78,-142.67 -315.99,88.46 -541.5,197.79 -808.1,388.53 -270.19,207.59 -451.5,403.87 -650,678.71 -76.38,113.51 -142.21,223.14 -210.9,340.77 -151.27,281.74 264.11,-192.7 324.85,-249.68 54.93,-54.45 109.56,-105.89 167.55,-156.94 -44.24,63.61 -82.27,127.11 -123.88,191.86 -171.06,324.88 -280.21,618.81 -383.76,970.36 134.79,-331.81 269.47,-603.76 471.36,-900.34 153.01,-208.33 293.09,-364.24 492.53,-529.29 -184.36,180.02 -311.89,346.62 -447.99,564.91 -219.31,406.67 -345.05,775.53 -462.61,1220.98 147.27,-427.18 297.43,-775.2 547.41,-1153.19 135.99,-188.49 261.22,-332.05 437.18,-484.38 -147.09,172.4 -251.94,348.09 -355.07,550.02 -158.54,414.97 -457.05,1664.4 -313.76,2065.92 68.42,-365.2 155.73,-730.81 275.24,-1082.89 22.61,51.21 45.71,102.18 69.22,152.97 72.52,-315.05 152.02,-590.81 278.42,-888.87 108.66,-206.46 211.9,-366.36 370.35,-538.42 0.04,-0.05 0.08,-0.1 0.13,-0.14 0,0.08 0.01,0.27 0,0.35 8.81,122.36 24.94,230.82 51.22,350.59 12.82,-66.62 29.35,-129.78 49.52,-194.66 74.39,-187.71 201,-413.67 375.08,-525.82 1.98,-2.18 20.28,-11.77 21.92,-2.96 1.56,8.46 -6.72,67.28 -8.66,69.41 -49.84,230.48 -77.3,417.32 -56.94,653.99 42.65,-80.78 84.15,-140.18 146.07,-207.53 189.63,-207.25 394.21,-297.51 663.73,-363.63 -12.61,110.35 -26.72,220.52 -42.24,330.5 187.2,-38.42 345.59,-44.08 536.02,-34.06 383.79,-10.79 699.53,41.99 1070.11,137.1 -100.43,66.34 -199.46,134.78 -296.85,205.51 382.72,104.52 739.9,262.86 1085.85,455.91 41.43,17.97 236.16,141.96 255.18,186.76 35.75,132.62 -190.24,99.31 -267.39,89.07 196.55,90.11 363.93,178.17 541.43,302.54 188.36,163.55 308.22,305.16 420.92,528.96 97.92,225.15 131.89,408.63 137.27,653.45 -131.02,2.63 -327.39,-499.76 -383.99,-606.65 -2.24,-4 -10.38,-16.86 -11.47,-20.02 -48.82,-75.47 -58.21,-83.74 -13.46,1.4 96.17,200.35 128.67,360.51 137.02,583.61 6.93,259.96 -29.9,467.96 -100.2,717.08 -41.04,171.96 -88.81,327.73 -150.44,492.75 -65.19,172.13 -140.26,340.67 -221.09,505.98 -30.66,-198.94 -68.86,-397.05 -118.2,-592.25 -213.15,403.16 -481.14,784.82 -752.05,1151.02 -27.04,-35.77 -54.14,-71.51 -81.22,-107.26 -92.16,104.56 -709.5,795.34 -771.95,800.67 2.56,-47.1 -208.14,84.16 -219.53,89.85 -27,13.46 -87.35,51.02 -85.88,49.99 12.83,-32.47 28.95,-70.11 39.26,-103 17.12,-38.59 34.43,-77.08 51.84,-115.55 -29.45,24.68 -58.87,49.39 -88.25,74.17 -53.13,44.37 -106.64,87.81 -160.94,130.75 -451.92,513.66 -999.47,979.61 -1536.32,1402.17 -1812.48,981.43 -3738.25,1802.63 -5619.9,2644.04 -625.32,270.07 -1309.93,557.59 -1908.52,875.21 -324.2,175.12 -679.85,377.11 -945.66,632.38 -45.87,54.69 -68.8,106.94 -90.01,174.47 -23.04,77.55 -33.77,147.49 -41.45,227.8 -15.74,188.82 -7.91,362.73 8.03,550.95 35.02,337.62 90.04,634.52 142.15,964.17 48.34,-87.81 60.6,-209.73 64.61,-307.47z"/>
  </g>
  <path class="fil1" d="M26808.38 9044.58c974.23,-3468.32 3059.68,-3575.7 5517.55,-1410.43 1960.19,1726.83 -249.51,3284.25 -1900.97,4736.81 -2423.17,2131.33 -9157.53,4761.8 -10041.22,5819.04 -260.21,311.3 1.52,1487.23 76.82,1859.22"/>
  <path class="fil1" d="M27316.54 9612.89c1225.07,-3387.85 3312.79,-3342.55 5605.87,-1003.46 1828.76,1865.45 -488.85,3257.23 -2242.04,4585.22 -2572.44,1948.57 -9481.01,4079.88 -10439.6,5069.72 -282.26,291.46 -107.17,1483.37 -59.25,1859.86"/>
  <path class="fil1" d="M31435.59 14369.65c2708.67,-2375.18 4515,-1327.41 5393.57,1828.16 700.66,2516.61 -2000.9,2616.29 -4177.39,2932.65 -3193.57,464.21 -10272.51,-1005.33 -11589.9,-601.4 -387.91,118.93 -810.11,1247.23 -949.95,1600.06"/>
  <g id="_1737031110416">
   <path class="fil0" d="M35308.72 25711.66c136.34,-21.93 257.25,-49.37 389.29,-90.12 309.79,-101.31 528.21,-217.88 777.45,-429.19 253.93,-231.99 401.01,-445.57 541.61,-758.53 136.77,-345.45 189.01,-634.76 216.49,-1003.71 9.35,-167.95 14.08,-332.37 13.51,-500.58 -16.02,-526.76 -50.65,-1274.53 -394.78,-1715.44 -23.26,-37.05 -46.31,-72.61 -67.25,-111.14 -59.92,-111.13 86.45,107.87 86.5,107.96 33.2,38.3 171.95,221.09 119.5,54.22 -8,-23.41 -16.16,-46.66 -24.55,-69.93 -64.63,-201.81 -134.62,-382.04 -234.49,-568.78 -83.91,-157.51 -266.62,-370.26 -438.69,-434.63 -232.44,-68.22 188.27,82.37 119.58,-19.27 -99.21,-109.05 -232.45,-239.47 -366.38,-303.98 -0.7,-0.35 -7.76,-3.85 -7.77,-3.87 -106.97,-53.05 -284.07,-122.99 -407.36,-114.05 -216.35,66.72 7.73,-61.7 -88.4,-104.37 -48.12,-11.8 -95.05,-21.37 -143.93,-29.43 -232.02,-25.25 -432.71,-21.72 -661.12,20.48 241.93,-65.18 434.91,-90.83 685.81,-74.95 264.72,33.61 453.89,98.99 682.8,236.77 529.59,340.71 774.14,791.9 964.19,1378.84 251.6,773.26 269.55,1455.3 213.4,2259.82 -35.84,372.23 -94.85,663.65 -240.59,1009.41 -147.28,313.32 -298.99,527.03 -558.6,756.99 -253.32,208.68 -473.71,323.42 -785.8,421.49 -132.45,39.19 -253.94,65.45 -390.42,85.99 -157.22,22.57 -301.65,33.32 -460.29,36.13 -782.33,-2.37 -1360.66,-158.89 -2100.39,-391.62 718.14,229.16 1336.74,372.51 2100.41,388.96 158.79,-1.77 302.85,-11.52 460.27,-33.47zm-15235 -5811.63c176.83,-109.33 338.66,-298.38 502.38,-440.19 2,-1.69 4.28,-3.45 6.18,-5.21 139.35,-116.05 278.85,-215.02 438.48,-302.27 65.05,-34.06 124.3,-61.02 195.02,-81.67 53.23,-14.65 99.62,-22.99 154.88,-15.64 688.35,162.99 2231.83,1197.2 2830.77,1583.53 2259.79,1601.87 4718.65,3398.22 7288.02,4418.5 901.15,310.87 1778.06,642.41 2729.4,760.77 213.37,21.95 414.33,34.12 628.86,33.7 317.54,-4.07 575.91,-30.27 883.82,-108.38 340.59,-96.2 574.04,-203.41 865.24,-399.24 118.95,-82.32 452.73,-254.37 516.42,-327.41 -121.92,51.32 -248.3,92 -377.72,119.54 201.62,-183.02 336.83,-369.18 473.68,-605.28 193.2,-350.33 289.64,-657.15 365.86,-1048.84 47.45,-257.23 91.31,-525.38 104.46,-786.94 5.97,-467.77 -143.48,615.83 -155.79,679.24 91.75,-571.9 143.64,-1159.9 116.72,-1739.24 -7.49,280.45 -33.11,560.57 -71.62,838.43 31.36,-481 28.72,-893.39 -34.4,-1372.17 -55.64,-357.84 -128.52,-645.86 -265.03,-982.04 116.26,341.97 172.42,632.81 207.58,991.55 8.27,131.82 11.71,259.93 11.27,391.99 -9.64,-130.8 -23.93,-256.79 -42.91,-386.76 -120.64,-712.54 -330.07,-1272.58 -836.67,-1802.36 -104.33,-101.22 -284.61,-260.63 -420.75,-317.54 -42.19,-10.5 293.74,282.33 371.76,364.91 474.48,541.31 675.41,1067.85 798.5,1769.41 15.36,97.38 28.27,193.27 38.76,291.21 -17.99,-96.82 -38.88,-191.6 -62.29,-287.33 -161.51,-674.27 -389.39,-1168.13 -895.74,-1656.51 -245.33,-217.92 -459.27,-348.45 -763.91,-469.51 -320.74,-114.96 -583.9,-161.28 -922.44,-179.56 -136.79,-2.84 -264.6,1.1 -400.69,6.95 -318.8,25.17 304.94,117.9 385.71,138.16 75.51,16.75 148.33,34.87 222.63,56.03 -77.42,-2.81 -151.41,-0.43 -228.37,-0.41 -365.78,31.86 -672.04,99.06 -1023.73,202.13 351.99,-66.12 653.56,-99.96 1012.22,-90.58 257.98,16 464.89,49.48 711.59,127.95 -251.13,-57.68 -460.23,-74.82 -717.45,-71.22 -460.67,35.53 -838.93,129.3 -1277.17,271.38 438.95,-107.21 812.88,-169.17 1266.02,-163.39 232.09,12.42 420.58,40.1 643.88,105.69 -224.57,-30.46 -429.05,-23.61 -654.67,-1.12 -434.78,91.13 -1647.11,515.91 -1907.31,853.62 344.17,-140 698.91,-264.33 1059.67,-354.27 -30.83,46.72 -61.21,93.72 -91.21,140.97 304.21,-109.43 579.15,-191.73 898.21,-246.64 232.42,-20.29 422.76,-19.96 653.18,20.23 0.06,0.01 0.12,0.02 0.18,0.04 -0.07,0.04 -0.22,0.15 -0.29,0.19 -98.15,73.6 -180.64,145.84 -267.17,232.72 62.97,-25.25 125.04,-45.51 190.51,-63.65 198.12,-38.97 456.65,-54.7 645.15,31.04 2.91,0.49 20.87,10.7 14.34,16.84 -6.27,5.89 -60.22,30.74 -63.06,30.26 -220.81,82.75 -392.81,160.72 -580.85,305.87 91.01,-7.82 163.42,-5.05 253.56,10.6 276.89,47.38 463.47,170.63 664.87,361.55 -99.63,49.08 -199.93,96.81 -300.82,143.24 133.56,136.67 224.01,266.82 318.58,432.41 216.68,316.95 343.08,611.07 463.55,974.2 -110.12,-48.58 -221.25,-94.85 -333.42,-138.51 119.11,378.44 179.14,764.5 203.91,1159.89 7.3,44.57 8.35,275.41 -19.05,315.65 -92.2,101.81 -186.43,-106.28 -219.55,-176.71 30.53,214.05 47.01,402.47 38.42,619.03 -35.66,246.89 -89.93,424.3 -217.21,640.15 -136.4,204.15 -272.34,331.96 -475.34,468.92 -73.08,-108.77 243.24,-545.69 302.52,-651.11 2.16,-4.05 8.57,-17.85 10.64,-20.48 37.06,-81.89 38.94,-94.25 -8.46,-10.57 -116.48,189.27 -233.61,303.24 -416.74,430.94 -214.9,146.45 -409.76,227.99 -657.31,303.61 -166.83,58.51 -323.68,102.59 -495.82,140.02 -180.03,38.28 -362.39,66.31 -545.16,87.74 150.74,-133.39 296.71,-272.69 434.19,-419.78 -454.39,38.81 -920.35,19.86 -1374.89,-9.9 15.45,-42.1 30.85,-84.22 46.27,-126.34 -137.79,-20.95 -1052.71,-166.52 -1090.98,-216.16 41,-23.33 -183.37,-129.53 -194.32,-136.04 -25.93,-15.42 -90.16,-45.87 -88.5,-45.19 34.25,-6.77 74.63,-13.57 107.87,-22.69 41.71,-6.48 83.45,-12.74 125.22,-18.9 -36.69,-11.43 -73.38,-22.8 -110.11,-34.1 -66.06,-20.69 -131.54,-42.2 -197.04,-64.64 -676.47,-102.24 -1364.55,-310.73 -2010.35,-533.69 -1805.87,-993.53 -3538.26,-2169.03 -5263.77,-3296.49 -565.4,-379.85 -1177.55,-800.12 -1768.49,-1131.77 -322.65,-177.95 -684.93,-367.82 -1043.41,-453.3 -70.8,-8.99 -127.15,-0.02 -195.43,18.68 -77.69,22.57 -142.31,51.37 -214.02,88.35 -167.32,88.9 -309.36,189.56 -459.04,304.78 -265.02,212.09 -484.97,418.96 -734.04,641.1 100,-6.83 209.17,-62.47 293.56,-111.97z"/>
  </g>
  <path class="fil1" d="M32542.64 19473.46c3444.08,-1056.72 4662.47,639.21 4170.86,3877.7 -392.07,2582.74 -2897.25,1566.68 -5012.27,963.42 -3103.36,-885.16 -8958.56,-5126.33 -10325.79,-5297.69 -402.58,-50.46 -1250.04,805.76 -1522.17,1070.31"/>
  <g id="_1737031108368">
   <path class="fil0" d="M30145.07 32467.65c129.03,49.23 247.45,85.95 382.16,116.72 318.92,67.25 566.37,75.58 887.89,17.3 335.92,-73.84 570.12,-185.19 848.42,-385.84 291.24,-230.7 481.21,-455.07 689.58,-760.78 92.11,-140.75 178.46,-280.75 262.12,-426.68 249.64,-464.12 593.74,-1128.93 516.34,-1682.85 -1.61,-43.72 -3.78,-86.04 -2.63,-129.87 3.7,-126.21 20.88,136.64 20.89,136.74 9.58,49.78 38.28,277.47 76.35,106.74 4.78,-24.27 9.35,-48.49 13.72,-72.83 45,-207.09 74.56,-398.15 81.5,-609.81 6.14,-178.35 -45.63,-453.97 -162.42,-595.79 -167.14,-175.35 121.82,165.5 113.19,43.13 -31.36,-144.04 -81.48,-323.64 -165.18,-446.49 -0.43,-0.65 -4.79,-7.21 -4.79,-7.24 -66.09,-99.44 -184.44,-248.6 -295.67,-302.54 -220.71,-50.46 37.57,-49.56 -24.33,-134.59 -35.76,-34.29 -71.61,-66.05 -109.9,-97.49 -188.27,-137.93 -363.81,-235.28 -582.69,-313 242.09,64.59 422.02,138.93 631.32,278.19 212.4,161.53 343.49,312.78 472.77,546.59 288.12,559.95 274.15,1072.96 145.09,1676.25 -168.99,795.41 -494.64,1394.96 -945.74,2063.48 -217.24,304.37 -414.12,527.18 -713.28,753.66 -284.27,197.62 -522.54,306.77 -862.38,376.01 -323.74,53.97 -571.96,43.06 -891.25,-28.15 -134.3,-32.33 -252.62,-70.37 -381.08,-120.86 -147.42,-59.11 -277.86,-122.05 -416.62,-198.98 -676.22,-393.42 -1098.68,-818.26 -1622.76,-1389.84 507.18,557.68 971.09,991.27 1624.1,1387.55 138.38,77.91 267.99,141.53 415.28,201.27zm-10284.24 -12653.64c207.82,-6.2 442.51,-88.94 655.21,-129.83 2.58,-0.46 5.44,-0.85 7.96,-1.41 178.71,-30.78 349.02,-46.69 530.88,-42.38 73.37,3.05 138.16,9.35 209.73,26.85 53.41,13.94 97.76,29.93 141.92,63.93 514.49,485.49 1333.58,2153.13 1658.91,2787.27 1155.34,2517.5 2385.75,5303 4100.09,7471.79 624.76,719.98 1218.2,1445.74 1982.73,2024.15 173.77,125.74 341.69,236.82 527.65,343.77 276.99,155.34 513.82,261.9 819.5,348.31 343.03,87.09 598.81,111.04 948.91,87.15 144.18,-11.77 519.26,6.23 610.94,-25.15 -131.23,-16.56 -261.01,-44.55 -386.85,-85.45 266.13,-57.61 476.34,-151.16 712.94,-287.13 342.55,-206.69 579.54,-424.11 841.48,-725.14 169.78,-198.99 341.9,-409.24 484.14,-629.13 239.17,-402.05 -432.32,461.45 -474.7,510.19 365.55,-449.29 704.63,-932.46 971.14,-1447.57 -146.78,239.1 -309.1,468.83 -481.44,690.15 267.78,-400.8 471.8,-759.19 656.65,-1205.34 130.84,-337.67 211.82,-623.52 261.81,-982.9 -70.42,354.26 -167.28,634.19 -316.3,962.4 -58.79,118.28 -119.9,230.93 -186.35,345.05 57.09,-118.07 107.75,-234.32 156.33,-356.35 252,-677.32 350.82,-1267.01 177.2,-1979.17 -39.69,-139.83 -116.04,-368.05 -205.46,-485.44 -31.28,-30.19 113.1,391.41 139.36,501.95 140.03,706.07 50.6,1262.5 -193.78,1931.54 -35.41,92.01 -72.21,181.49 -112.12,271.55 32.85,-92.84 62.19,-185.36 89.8,-279.95 197.47,-664.63 247.21,-1206.26 53.1,-1882.44 -103.41,-311.42 -223.35,-531.47 -426.57,-788.69 -220.22,-260 -424.91,-431.75 -708.89,-616.95 -117.02,-70.88 -229.67,-131.41 -350.43,-194.42 -288.63,-137.69 205.06,254.63 264.86,312.58 57.01,52.28 110.99,104.4 164.74,159.89 -65.63,-41.16 -130.88,-76.12 -197.53,-114.61 -332.66,-155.39 -631.46,-250.41 -987.54,-337.11 337.86,118.84 615.91,240.41 921.76,427.95 215.38,142.91 377.79,275.41 552.15,466.77 -188.6,-175.57 -361.08,-295.03 -585.6,-420.58 -416.65,-199.7 -791.08,-307.73 -1241.63,-403.95 433.72,126.77 788.49,260.19 1177.95,491.88 194.76,126.86 344.12,245.12 504.65,413.62 -179.21,-138.72 -359.69,-235.08 -566.3,-328.48 -422.06,-138.6 -1684.28,-377.27 -2078.52,-215.02 368.04,50.95 737.4,120.75 1094.76,223.36 -50.06,25.02 -99.88,50.52 -149.49,76.42 318.14,57.44 597.38,123.72 901.12,235.78 211.39,98.71 376.03,194.22 555.44,344.29 0.05,0.04 0.1,0.08 0.14,0.12 -0.08,0.01 -0.27,0.02 -0.34,0.02 -121.81,14.63 -229.37,35.91 -347.76,67.85 67.16,9.64 131.04,23.15 196.8,40.2 191.04,65.36 422.77,181.08 543.09,349.62 2.27,1.88 12.72,19.7 3.99,21.75 -8.37,1.96 -67.51,-3.51 -69.73,-5.34 -232.6,-38.81 -420.53,-57.34 -655.97,-25.74 82.72,38.76 144.03,77.39 214.25,136.03 216.05,179.54 315.95,379.6 394.82,645.66 -110.82,-7.34 -221.53,-16.19 -332.13,-26.46 47.29,185.16 60.49,343.1 59.54,533.79 29.06,382.84 -8.63,700.74 -85.98,1075.43 -71.05,-97.16 -144.13,-192.82 -219.41,-286.73 -86.18,387.27 -227.34,751.58 -403.69,1106.33 -15.98,42.24 -130.55,242.65 -174.4,263.78 -130.77,42.03 -108.25,-185.29 -101.7,-262.84 -80.65,200.61 -160.63,372 -276.42,555.22 -154.39,195.94 -290.13,322.4 -508.31,445.63 -220.24,108.53 -401.88,151.19 -646.17,168.23 -8.87,-130.74 483.6,-350.82 587.67,-412.45 3.89,-2.42 16.34,-11.16 19.45,-12.4 73.06,-52.37 80.88,-62.13 -2.03,-13.39 -195.55,105.61 -353.98,145.7 -576.43,164.66 -259.34,19.3 -468.85,-7.57 -721.03,-65.94 -173.73,-32.8 -331.59,-73.1 -499.36,-126.8 -175.04,-56.92 -346.96,-123.88 -515.94,-196.75 197.26,-40.09 393.33,-87.69 585.95,-146.27 -412.85,-193.7 -806.83,-443.22 -1185.52,-696.38 34.44,-28.72 68.85,-57.49 103.27,-86.24 -108.83,-87.07 -828.22,-670.82 -836.52,-732.95 47.17,0.32 -93.98,-203.89 -100.2,-215 -14.74,-26.33 -55.12,-84.82 -54.02,-83.4 33.04,11.27 71.4,25.58 104.75,34.31 39.36,15.26 78.63,30.72 117.88,46.28 -26.05,-28.25 -52.13,-56.45 -78.28,-84.61 -46.85,-50.96 -92.79,-102.35 -138.27,-154.54 -534.59,-426.94 -1026.09,-951.69 -1473.73,-1467.81 -1066.63,-1763.69 -1978.6,-3648.17 -2908.65,-5487.62 -299.54,-611.75 -619.33,-1281.89 -965.1,-1864.68 -190.36,-315.49 -409.06,-661.12 -676.69,-914.48 -56.81,-43.2 -110.1,-63.62 -178.56,-81.59 -78.56,-19.32 -148.93,-26.71 -229.52,-30.56 -189.35,-6.73 -362.69,9.37 -549.94,34.26 -335.57,51.05 -629.51,120.15 -956.3,187.89 90,44.11 212.37,50.55 310.19,49.91z"/>
  </g>
  <path class="fil1" d="M30870.74 25682.39c3510.77,807.97 3717.34,2885.94 1671.57,5444.13 -1631.54,2040.19 -3292.41,-92.84 -4821.96,-1673.26 -2244.3,-2318.93 -5192.46,-8920.39 -6290.59,-9752.73 -323.33,-245.09 -1485.47,72.33 -1853.45,165.26"/>
  <path class="fil1" d="M31794.78 25832.8c3524.29,746.81 3766.95,2820.87 1765.97,5414.25 -1595.82,2068.24 -3293.53,-35.6 -4850.32,-1589.18 -2284.28,-2279.56 -5346.77,-8828.77 -6459.19,-9641.9 -327.55,-239.43 -1483.99,98.15 -1850.3,197.47"/>
  <g id="_1737031108016">
   <path class="fil0" d="M22675.33 36178.51c84.02,109.59 165.57,202.99 264.11,299.85 236.23,224.57 442.51,361.48 746.81,480.55 324.72,113.37 582.52,141.44 924.71,116.63 368.97,-43.61 648.41,-134.96 986.19,-285.91 152.25,-71.49 299.22,-145.38 447,-225.72 456.02,-264.15 1097.74,-649.6 1322.45,-1161.78 21.57,-38.05 41.92,-75.23 65.89,-111.94 69.37,-105.5 -53.9,127.29 -53.95,127.38 -17.96,47.4 -112.97,256.29 9,130.92 16.8,-18.16 33.39,-36.37 49.89,-54.81 146.95,-152.68 272.35,-299.83 389.31,-476.38 98.8,-148.62 199.32,-410.42 174.29,-592.43 -50.29,-236.97 16.88,204.81 73.74,96.1 48.88,-139.08 100.42,-318.27 93.62,-466.77 -0.02,-0.78 -0.3,-8.65 -0.28,-8.67 -4.09,-119.33 -26.59,-308.41 -92.99,-412.68 -161.42,-158.75 57.98,-22.48 49.9,-127.35 -12.46,-47.95 -26.31,-93.8 -42.42,-140.65 -87.92,-216.2 -186.28,-391.16 -331.85,-572.16 172.22,181.99 286.39,339.67 391.51,568.04 96.08,248.94 128.33,446.48 115.73,713.35 -48.48,627.86 -329.52,1057.27 -755.9,1503.16 -561.16,588.51 -1152.94,928.07 -1887.69,1260.54 -344.63,145.15 -629.13,231.55 -1002.64,267.41 -345.69,19.1 -605.79,-12.99 -931.43,-132.33 -303.92,-123.9 -509.52,-263.41 -743.99,-491.54 -97.36,-97.98 -178.14,-192.44 -261.01,-302.81 -94.49,-127.67 -172.51,-249.69 -250.29,-387.98 -369.28,-689.69 -506.05,-1273.01 -652.35,-2034.56 139.2,740.85 306.67,1353.36 654.69,2033.31 76.94,138.93 153.9,261.09 247.95,389.23zm-2116.78 -16167.86c180.17,103.75 423.39,156.44 625.91,233.22 2.44,0.96 5.07,2.13 7.52,2.97 168.29,67.56 321.62,143.36 474.19,242.44 60.86,41.09 112.71,80.44 164.46,132.88 38.15,39.9 67.52,76.77 87.28,128.89 183.3,683.22 5.71,2532.66 -50.01,3243.2 -337.19,2749.35 -751.06,5766.23 -429.41,8511.99 154.16,940.71 278.61,1869.91 626.03,2763.43 81.96,198.2 166.64,380.87 268.85,569.48 154.31,277.56 300.02,492.53 514.93,726.45 246.35,254.11 451.53,408.69 762.11,572.03 128.92,65.62 438.79,277.73 533.31,299.11 -103.03,-82.95 -198.84,-174.87 -284.51,-275.7 256.79,90.57 484.83,121.21 757.59,129.59 400.05,3.74 715.88,-57.02 1096.81,-175.87 248.93,-80.33 505.76,-169.03 742.21,-281.61 414.55,-216.79 -610.13,166.04 -671.78,185.31 546.91,-190.72 1089.07,-424.17 1586.2,-722.87 -250.39,126.54 -509.11,236.96 -771.94,334.96 438.24,-200.72 799.95,-398.8 1191.39,-681.64 288.53,-218.83 507.44,-419.69 738.54,-699.42 -245.8,264.65 -475.12,452.14 -774.18,653.38 -112.1,69.85 -223.22,133.69 -339.66,195.99 110.54,-70.57 214.65,-142.96 320.03,-221.36 569.88,-444.41 963.38,-894.59 1189.2,-1591.96 39.56,-139.87 94.29,-374.21 79.76,-521.06 -10.79,-42.11 -109.07,392.56 -144.7,500.43 -251.21,674.57 -619.27,1101.36 -1178.32,1542.73 -78.42,59.74 -156.69,116.62 -237.91,172.34 76.67,-61.79 150.18,-125.17 223.32,-191.21 516.79,-462.23 843.3,-897.23 1032.79,-1574.72 75.34,-319.38 88.68,-569.63 50.62,-895.23 -51.08,-336.87 -135.23,-590.48 -279.83,-897.13 -62.44,-121.74 -126.58,-232.36 -196.33,-349.37 -173.48,-268.64 40.99,324.36 61.49,405.07 21.11,74.42 39.73,147.11 56.37,222.55 -34.28,-69.48 -71.49,-133.47 -108.04,-201.2 -201.68,-306.81 -406.2,-544.47 -663.86,-805.09 225.28,278.42 398.21,527.79 560.21,847.91 108.38,234.66 177.13,432.67 225.17,687.05 -68.44,-248.41 -152.61,-440.6 -277.89,-665.28 -249.94,-388.59 -512.02,-677 -845.1,-995.28 302.72,335.46 534.76,635.16 744.77,1036.73 99.24,210.18 164.35,389.21 212.62,616.89 -79.79,-212.12 -182.89,-388.84 -309.78,-576.75 -286.6,-339.41 -1235.95,-1204.81 -1656.7,-1273.51 286.59,236.46 564.42,489.66 814.83,764.5 -55.76,-4.96 -111.54,-9.38 -167.37,-13.36 240.71,215.8 443.66,418.72 643.45,673.48 128.18,194.93 218.24,362.62 292.25,584.5 0.02,0.06 0.04,0.12 0.05,0.18 -0.07,-0.04 -0.24,-0.12 -0.3,-0.16 -111.37,-51.46 -214.11,-89.77 -331.66,-124.69 52.12,43.44 99.42,88.45 146.46,137.47 128.34,155.88 264.91,375.96 278.92,582.56 0.95,2.8 0.5,23.45 -8.01,20.62 -8.16,-2.72 -55.64,-38.41 -56.56,-41.14 -177.66,-155.07 -327.93,-269.43 -544.94,-366.05 50.08,76.4 82.02,141.45 111.03,228.21 89.73,266.2 69.83,488.92 -2.61,756.81 -90.49,-64.39 -180.11,-130.01 -268.88,-196.77 -56.88,182.43 -128.5,323.82 -229.35,485.66 -176.11,341.17 -374.98,592.03 -637.4,870.44 -9.52,-119.99 -21.54,-239.77 -36.37,-359.22 -276.54,284.48 -587.83,520.58 -924.08,730.07 -35.76,27.57 -238.45,138.08 -286.87,133.07 -133.37,-32.82 5.06,-214.54 51.32,-277.13 -173.91,128.48 -331.92,232.43 -526.61,327.67 -234.23,85.81 -416.14,122.25 -666.53,112.7 -244.43,-23.15 -421.46,-82.13 -638.36,-195.79 61.04,-115.95 595.75,-44.94 716.68,-42.81 4.58,-0.02 19.77,-0.93 23.07,-0.35 89.67,-6.26 101.44,-10.47 5.29,-12.47 -221.88,-12.68 -377.79,-61.67 -577.12,-162.23 -230.9,-119.63 -395.17,-252.43 -579.24,-434.42 -130.68,-119.06 -243.94,-236.19 -358.59,-369.92 -119.16,-140.3 -230.39,-287.49 -336.01,-438.18 188.96,69.35 380.85,131.7 575.57,182.89 -249.85,-381.51 -454.36,-800.62 -643.93,-1214.82 44.39,-6.38 88.78,-12.82 133.16,-19.24 -46.97,-131.22 -353.15,-1005.6 -327.62,-1062.84 39.99,25.01 26.96,-222.89 27.49,-235.61 1.27,-30.14 -2.42,-101.13 -2.23,-99.34 22.21,26.93 47.37,59.24 71.17,84.16 25.5,33.64 50.83,67.41 76.08,101.25 -7.36,-37.72 -14.76,-75.41 -22.25,-113.11 -13.15,-67.96 -25.3,-135.8 -36.64,-204.1 -231.13,-643.93 -374.26,-1348.52 -484.57,-2022.75 17.23,-2061.07 229.51,-4143.83 402.75,-6197.74 65.94,-677.95 145.27,-1416.24 156.66,-2093.78 3.46,-368.46 -1.4,-777.44 -96.33,-1133.54 -25.7,-66.59 -60.34,-111.92 -109.2,-163.14 -56.75,-57.66 -112.78,-100.87 -179.36,-146.42 -157.68,-105.08 -313.7,-182.31 -486.16,-259.36 -312.47,-132.59 -598.96,-227.97 -912.71,-341.74 53.49,84.76 154.28,154.45 237.9,205.22z"/>
  </g>
  <path class="fil1" d="M26852.87 30782.72c2564.95,2529.71 1650.63,4407.12 -1433.1,5511.71 -2459.32,880.92 -2754.22,-1806.35 -3227.23,-3954.25 -694.06,-3151.61 259.41,-10318.32 -238.77,-11603.03 -146.69,-378.28 -1302.58,-717.74 -1664.6,-831.68"/>
  <g id="_1737031105552">
   <path class="fil0" d="M14300.62 34831.63c17.8,136.94 41.58,258.63 78.32,391.83 91.92,312.71 201.85,534.55 405.53,790.05 224.22,260.82 433.26,414.28 741.84,564.26 341.16,147.13 628.76,208.08 996.72,246.69 167.59,14.41 331.79,24.11 499.94,28.62 527,-0.12 1275.48,-12.17 1726.58,-342.83 37.73,-22.13 73.97,-44.1 113.11,-63.86 112.89,-56.55 -110.43,83.15 -110.51,83.2 -39.29,32.02 -226.19,165.2 -57.81,117.81 23.64,-7.29 47.12,-14.74 70.64,-22.43 203.67,-58.51 385.93,-123.03 575.6,-217.22 159.97,-79.11 378.14,-255.32 447.67,-425.37 75.2,-230.28 -88.01,185.7 15.66,120.11 111.98,-95.87 246.37,-225.12 314.89,-357.04 0.37,-0.69 4.08,-7.64 4.11,-7.65 56.25,-105.32 131.51,-280.23 126.29,-403.73 -60.15,-218.27 61.44,9.59 106.99,-85.21 13.25,-47.75 24.23,-94.36 33.77,-142.98 32.23,-231.15 34.77,-431.85 -0.52,-661.43 57.85,243.79 77.65,437.45 54.21,687.75 -41.58,263.59 -112.64,450.7 -257.27,675.35 -356.53,519.07 -814.9,749.88 -1407.31,922.13 -780.51,228.14 -1462.78,225.5 -2265.24,145.09 -370.97,-47.05 -660.48,-114.83 -1001.68,-270.94 -308.74,-156.68 -517.76,-314.76 -739.79,-581.2 -200.94,-259.51 -308.97,-483.25 -397.58,-798.16 -35.17,-133.58 -57.75,-255.8 -74.16,-392.84 -17.82,-157.83 -24.2,-302.52 -22.22,-461.17 25.98,-781.9 199.88,-1355.25 454.84,-2087.61 -250.73,710.89 -412.69,1324.88 -452.19,2087.7 -3.02,158.78 2.38,303.06 19.57,461.08zm6268.83 -15052.65c103.95,180.06 288.03,347.52 424.83,515.44 1.63,2.06 3.32,4.39 5.02,6.34 111.79,142.79 206.5,285.22 288.9,447.4 32.08,66.06 57.24,126.09 75.75,197.41 13.03,53.64 19.97,100.26 10.95,155.27 -183.69,683.11 -1264.02,2194.68 -1668.25,2781.69 -1669.35,2210.4 -3539.1,4613.92 -4636.47,7151.33 -337.93,891.35 -695.79,1757.85 -842.81,2705.19 -28.37,212.61 -46.61,413.11 -52.66,627.55 -5.52,317.53 12.87,576.57 81.65,886.69 85.87,343.35 185.99,579.93 372.94,876.9 78.69,121.38 240.59,460.2 311.67,526.06 -47.61,-123.4 -84.46,-250.96 -108.08,-381.14 176.85,207.04 358.85,347.82 590.7,491.73 344.34,203.68 648.11,309.34 1037.32,397.34 255.69,55.2 522.39,107.13 783.43,128.17 467.38,20.09 -611.21,-162 -674.23,-176.22 568.88,108.97 1155.04,178.58 1734.93,169.16 -280.1,-15.94 -559.32,-50.01 -835.88,-96.89 479.83,45.87 892.11,55.68 1372.58,7.03 359.35,-44.81 649.44,-108.96 989.59,-235.26 -345.32,105.88 -637.72,153.24 -997.36,177.55 -132.01,4.29 -260.17,3.87 -392.15,-0.57 131.02,-5.68 257.39,-16.16 387.87,-31.21 715.86,-99.08 1281.96,-291.51 1826.8,-781.89 104.31,-101.22 269.1,-276.6 330.09,-410.97 11.77,-41.85 -291.07,285.08 -375.96,360.58 -555.39,457.92 -1087.75,642.87 -1792.71,744.73 -97.8,12.41 -194.03,22.42 -292.25,29.95 97.32,-15.07 192.69,-33.08 289.08,-53.59 678.84,-141.09 1179.36,-353.96 1682.8,-845.33 225.22,-238.65 362.15,-448.54 492.35,-749.39 124.58,-317.13 178.83,-578.77 207.32,-916.6 6.97,-136.64 6.89,-264.52 5.14,-400.72 -15.53,-319.41 -127.04,301.24 -149.74,381.36 -19.01,74.98 -39.32,147.21 -62.72,220.84 5.14,-77.3 5.01,-151.33 7.31,-228.26 -20.81,-366.56 -78.73,-674.72 -171.14,-1029.36 55.46,353.83 80.18,656.29 59.98,1014.49 -23.78,257.39 -63.49,463.19 -149.36,707.41 65.23,-249.28 88.68,-457.77 92.83,-714.98 -21.6,-461.53 -103.91,-842.44 -232.69,-1284.78 93.9,441.99 144.55,817.63 125.09,1270.38 -19.41,231.61 -52.77,419.18 -125.07,640.4 37.22,-223.55 36.54,-428.14 20.88,-654.34 -77.97,-437.34 -465.96,-1661.93 -795.67,-1932.21 129.55,348.24 243.12,706.57 322.13,1069.88 -45.77,-32.23 -91.83,-64 -138.15,-95.42 100.19,307.37 174.16,584.67 219.42,905.24 13.26,232.93 7.18,423.17 -39.95,652.27 -0.01,0.07 -0.02,0.13 -0.04,0.19 -0.04,-0.07 -0.15,-0.23 -0.18,-0.3 -70.6,-100.33 -140.32,-184.96 -224.55,-274.07 23.34,63.71 41.72,126.35 57.87,192.34 32.97,199.21 40.89,458.1 -50.5,643.92 -0.58,2.89 -11.32,20.54 -17.26,13.83 -5.7,-6.45 -28.91,-61.12 -28.35,-63.95 -76.05,-223.21 -148.79,-397.48 -288.2,-589.82 5.07,91.21 0.12,163.5 -18.25,253.13 -55.71,275.33 -184.53,458.11 -381.45,653.65 -46.05,-101.07 -90.72,-202.75 -134.1,-305.01 -140.63,129.38 -273.46,215.86 -441.82,305.39 -323.35,207.01 -621.15,324.48 -987.75,433.93 51.89,-108.6 101.49,-218.29 148.51,-329.09 -381.86,107.64 -769.55,155.99 -1165.52,168.81 -44.76,5.95 -275.53,0.03 -314.93,-28.56 -98.98,-95.24 111.87,-183.14 183.26,-214.12 -214.87,24.05 -403.7,34.84 -619.91,19.71 -245.7,-43.1 -421.39,-102.7 -633.3,-236.43 -199.94,-142.5 -323.59,-282.23 -454.36,-489.28 110.93,-69.76 538.1,259.6 641.69,322.04 3.97,2.28 17.58,9.1 20.14,11.25 80.74,39.52 93.04,41.77 10.82,-8.13 -185.66,-122.15 -296.04,-242.66 -418.16,-429.56 -139.89,-219.22 -215.52,-416.46 -283.63,-666.18 -53.44,-168.52 -92.77,-326.63 -124.99,-499.82 -32.83,-181.11 -55.34,-364.23 -71.25,-547.56 128.79,154.7 263.62,304.8 406.48,446.66 -25.07,-455.35 7.94,-920.52 51.41,-1373.96 41.61,16.72 83.24,33.38 124.87,50.07 25.11,-137.1 198.22,-1047.22 249,-1083.97 22.08,41.69 135.01,-179.38 141.84,-190.12 16.2,-25.45 48.57,-88.74 47.84,-87.1 5.73,34.44 11.31,75.01 19.43,108.51 5.21,41.89 10.21,83.8 15.11,125.73 12.53,-36.32 25.01,-72.66 37.41,-109.03 22.67,-65.41 46.15,-130.21 70.56,-194.99 122.61,-673.08 351.77,-1354.56 594.12,-1993.33 1047.59,-1775.06 2274.84,-3471.17 3453.87,-5161.88 396.75,-553.67 835.31,-1152.86 1184.64,-1733.51 187.61,-317.14 388.32,-673.52 484.58,-1029.25 11.13,-70.51 3.86,-127.1 -12.76,-195.91 -20.22,-78.34 -47.06,-143.8 -81.86,-216.59 -83.81,-169.93 -180.13,-314.94 -290.79,-468.03 -203.98,-271.3 -404.13,-497.39 -618.65,-753.06 3.82,100.16 56.13,210.97 103.06,296.8z"/>
  </g>
  <path class="fil1" d="M20619.47 32255.1c952.27,3474.41 -779.65,4641.05 -4001.83,4051.92 -2569.73,-469.85 -1478.52,-2943.22 -811.69,-5039.07 978.43,-3075.23 5394.4,-8799.74 5606.95,-10161.18 62.59,-400.87 -767.67,-1273.79 -1023.88,-1553.79"/>
  <g id="_1737031106160">
   <path class="fil0" d="M7442.25 29300.79c-54.05,127.08 -95.21,244.03 -131.03,377.49 -79.21,316.17 -96.85,563.12 -50.72,886.61 61.13,338.46 163.59,576.69 353.62,862.35 219.56,299.72 436.62,498 734.28,717.73 137.17,97.35 273.82,188.91 416.5,278.01 454.39,266.94 1105.77,635.83 1662.22,579.34 43.74,0.04 86.12,-0.54 129.87,2.26 125.98,8.46 -137.33,15.73 -137.44,15.73 -50.09,7.7 -278.7,27.81 -109.53,72.27 24.08,5.7 48.1,11.17 72.27,16.45 205.24,52.77 395.05,89.5 606.3,104.42 177.99,12.85 455.37,-28.51 601.48,-139.88 181.52,-160.41 -169.97,115.5 -47.36,111.49 145.12,-25.91 326.48,-69.24 452.39,-148.25 0.67,-0.4 7.39,-4.52 7.42,-4.51 101.86,-62.3 255.37,-174.95 313.46,-284.07 58.74,-218.65 48.11,39.4 135.41,-19.25 35.62,-34.44 68.7,-69.07 101.56,-106.15 144.92,-182.94 248.81,-354.68 334.72,-570.49 -73.66,239.49 -154.72,416.49 -301.77,620.4 -169.41,206.17 -325.49,331.46 -564,451.85 -570.4,266.83 -1082.52,233.55 -1680.52,81.86 -788.49,-198.82 -1375.35,-546.81 -2026.41,-1022.76 -295.97,-228.55 -511.21,-433.68 -726.26,-741.16 -186.78,-291.52 -286.87,-533.72 -343.27,-875.93 -41.74,-325.54 -21.49,-573.17 61.68,-889.56 37.37,-132.98 79.84,-249.79 135.13,-376.25 64.62,-145.1 132.43,-273.07 214.53,-408.84 418.61,-660.92 859.06,-1067.09 1449.97,-1569.27 -576.39,485.82 -1027.14,933.08 -1447.73,1570.7 -83.06,135.35 -151.52,262.47 -216.77,407.41zm13031.94 -9800.46c-1.63,207.91 72.21,445.55 105.06,659.64 0.36,2.59 0.64,5.46 1.12,8 24.02,179.75 33.5,350.53 22.35,532.11 -5.81,73.2 -14.54,137.7 -34.72,208.56 -15.95,52.85 -33.59,96.56 -69.24,139.41 -504.51,495.85 -2201.82,1251.56 -2847.76,1552.78 -2559.22,1059.72 -5389.07,2184.36 -7620.89,3815.82 -742.99,597.21 -1490.59,1162.9 -2097.38,1905.1 -132.19,168.91 -249.51,332.53 -363.39,514.33 -165.66,270.95 -281.06,503.59 -378.92,805.8 -99.94,339.52 -133.51,594.21 -122.82,944.96 6.33,144.52 -25.79,518.66 2.12,611.45 21.49,-130.51 54.35,-259.15 99.96,-383.35 47.55,268.11 133.12,481.69 260.08,723.25 193.65,350.08 401.99,595.09 692.94,868.19 192.45,177.15 396.07,357.06 610.46,507.47 392.75,254.15 -444.85,-449.38 -491.97,-493.57 435.22,382.21 905.27,739.24 1409.98,1024.97 -233.4,-155.68 -456.85,-326.54 -671.53,-507.09 390.43,282.68 740.89,500.05 1179.76,701.58 332.5,143.45 615.1,235.14 972.34,298.62 -351.35,-83.7 -627.43,-191.03 -949.8,-352.31 -115.98,-63.2 -226.25,-128.51 -337.79,-199.21 115.84,61.5 230.1,116.49 350.21,169.64 667.35,277.33 1252.9,398.28 1971.09,251.61 141.23,-34.41 372.16,-102.11 492.83,-187.04 31.35,-30.12 -395.39,98.28 -506.83,120.35 -710.85,113.35 -1263.52,3.03 -1922.88,-266.37 -90.61,-38.85 -178.65,-78.99 -267.13,-122.27 91.53,36.33 182.88,69.12 276.37,100.29 656.72,222.34 1196.09,292.45 1879.1,123.94 315.1,-91.61 539.5,-203.18 804.19,-396.57 268.11,-210.27 447.45,-408.35 643.21,-685.16 75.24,-114.26 139.97,-224.55 207.48,-342.85 148.47,-283.24 -262.17,195.32 -322.34,252.9 -54.38,55 -108.5,106.98 -165.97,158.6 43.6,-64.04 80.99,-127.92 121.96,-193.08 167.81,-326.56 274.02,-621.58 374.06,-974.14 -131.48,333.14 -263.43,606.42 -462.35,905 -150.93,209.84 -289.45,367.14 -487.23,534.17 182.55,-181.85 308.41,-349.71 442.33,-569.35 215.24,-408.83 337.3,-778.93 450.41,-1225.53 -143,428.63 -289.69,778.13 -535.88,1158.6 -134.1,189.83 -257.9,334.63 -432.33,488.71 145.37,-173.86 248.45,-350.59 349.57,-553.54 154.39,-416.53 440.43,-1668.87 293.14,-2068.94 -64.77,365.86 -148.43,732.33 -264.42,1085.58 -23.13,-50.98 -46.74,-101.72 -70.75,-152.27 -69.38,315.75 -146.12,592.3 -269.54,891.6 -106.6,207.53 -208.24,368.46 -364.96,542.09 -0.04,0.05 -0.08,0.09 -0.13,0.13 0,-0.08 -0.01,-0.27 -0.01,-0.34 -10.02,-122.28 -27.24,-230.56 -54.7,-350.07 -12.16,66.75 -28.07,130.07 -47.58,195.15 -72.52,188.44 -196.87,415.65 -369.82,529.53 -1.97,2.21 -20.17,11.97 -21.89,3.18 -1.65,-8.44 6.05,-67.34 7.96,-69.49 47.55,-230.97 73.14,-418.07 50.42,-654.53 -41.84,81.2 -82.75,141.02 -144,208.97 -187.55,209.14 -391.22,301.44 -660.07,370.24 11.51,-110.47 24.52,-220.77 38.95,-330.9 -186.81,40.27 -345.13,47.52 -535.65,39.39 -383.66,14.62 -699.92,-35.01 -1071.43,-126.42 99.76,-67.34 198.11,-136.76 294.79,-208.45 -383.75,-100.71 -742.48,-255.48 -1090.35,-445.07 -41.6,-17.56 -237.55,-139.59 -257.03,-184.21 -37.07,-132.25 189.24,-101.2 266.5,-91.73 -197.44,-88.15 -365.7,-174.53 -544.42,-297.13 -189.99,-161.65 -311.26,-302.06 -426.18,-524.73 -100.16,-224.17 -135.95,-407.29 -143.77,-652.05 130.98,-3.94 332.35,496.47 390.02,602.79 2.27,3.98 10.54,16.75 11.66,19.91 49.58,74.97 59.04,83.15 13.45,-1.53 -98.17,-199.39 -132.26,-359.22 -142.83,-582.23 -9.52,-259.87 25.22,-468.23 93.04,-718.03 39.32,-172.37 85.54,-328.6 145.52,-494.23 63.47,-172.77 136.85,-342.05 216.04,-508.16 32.63,198.62 72.81,396.35 124.1,591.04 209.11,-405.27 473.29,-789.57 740.53,-1158.46 27.4,35.5 54.85,70.96 82.29,106.44 91.11,-105.47 701.53,-802.37 763.93,-808.32 -2.1,47.13 207.28,-86.23 218.62,-92.03 26.86,-13.74 86.84,-51.89 85.38,-50.85 -12.51,32.59 -28.26,70.4 -38.24,103.39 -16.73,38.75 -33.66,77.42 -50.68,116.05 29.21,-24.97 58.38,-49.96 87.5,-75.04 52.69,-44.9 105.77,-88.86 159.64,-132.35 446.76,-518.13 989.65,-989.52 1522.26,-1417.41 1802.6,-999.46 3720.09,-1839.81 5593.25,-2699.94 622.6,-276.29 1304.31,-570.63 1899.7,-894.2 322.44,-178.34 676.06,-383.87 939.31,-641.78 45.32,-55.14 67.73,-107.62 88.26,-175.36 22.27,-77.78 32.31,-147.81 39.18,-228.2 13.86,-188.97 4.3,-362.79 -13.52,-550.84 -38.38,-337.26 -96.36,-633.59 -151.75,-962.7 -47.47,88.28 -58.51,210.31 -61.55,308.09z"/>
  </g>
  <path class="fil1" d="M14195.37 30281.45c-939.59,3477.86 -3023.87,3606.03 -5503.21,1465.37 -1977.31,-1707.2 216.76,-3286.57 1853.65,-4755.52 2401.8,-2155.39 9109.59,-4852.87 9982.7,-5918.87 257.09,-313.88 -16.35,-1487.15 -95.35,-1858.36"/>
  <g id="_1736851903872">
   <path class="fil0" d="M4391.61 20635.87c-114.01,77.92 -211.71,154.26 -313.8,247.38 -237.12,223.63 -385.07,422.14 -520.54,719.5 -130.91,318.06 -172.99,573.94 -166.87,916.98 23.43,370.8 99.41,654.8 231.72,1000.3 63.09,155.93 128.85,306.71 201.03,458.65 238.89,469.74 588.78,1131.51 1087.95,1383.81 36.83,23.61 72.83,45.96 108.19,71.9 101.56,75.01 -124.16,-60.77 -124.25,-60.82 -46.35,-20.51 -249.76,-126.78 -131.22,1.85 17.21,17.77 34.5,35.33 52.01,52.8 144.45,155.06 284.54,288.3 454.45,414.7 143.01,106.76 398.95,221.4 582.04,206.33 239.36,-37.3 -205.42,5.69 -99.97,68.39 136.21,56.39 312.32,117.62 460.97,118.93 0.78,0.02 8.66,0.17 8.68,0.19 119.38,2.42 309.4,-9.74 417.13,-70.35 167.32,-152.53 19.29,59.11 124.44,56.76 48.56,-9.82 95.1,-21.16 142.76,-34.68 220.66,-76.01 400.73,-164.69 589.39,-300.17 -191.11,162.04 -354.77,267.44 -588.53,359.96 -253.81,82.37 -452.81,103.8 -718.6,76.67 -624.28,-82.64 -1037.74,-386.66 -1459.72,-836.71 -557.04,-592.41 -863.84,-1201.82 -1155.77,-1953.61 -126.15,-352.02 -196.9,-640.81 -212.35,-1015.72 -0.22,-346.21 45.99,-604.18 182.91,-922.83 140.28,-296.72 290.79,-494.4 531.36,-716.09 103.14,-91.88 201.86,-167.38 316.59,-244.12 132.63,-87.39 258.72,-158.64 401.05,-228.77 708.8,-331.13 1298.7,-435.9 2067.1,-540.46 -747.34,98.6 -1368.07,232.43 -2065.99,542.87 -142.91,69.25 -269.08,139.44 -402.16,226.36zm16259.21 -1232.28c-113.41,174.25 -179.28,414.22 -266.99,612.26 -1.09,2.39 -2.4,4.95 -3.37,7.35 -76.64,164.36 -160.69,313.33 -267.94,460.27 -44.34,58.52 -86.46,108.16 -141.65,156.97 -41.91,35.92 -80.33,63.24 -133.45,80.12 -692.2,145.78 -2529.2,-132.35 -3235.65,-226.72 -2726.88,-486.57 -5716.72,-1064.28 -8475.93,-892.78 -947.72,102.64 -1882.32,176.26 -2793.44,474.45 -202.38,71.04 -389.39,145.64 -583.29,237.41 -285.56,138.96 -508.15,272.73 -753.44,474.56 -267.17,232.13 -432.7,428.58 -612.72,729.8 -72.56,125.15 -301.24,423 -327.74,516.21 88.44,-98.36 185.44,-189.01 290.8,-269.05 -104.44,251.47 -147.46,477.5 -170.7,749.39 -25.55,399.26 17.91,717.93 115.82,1104.77 66.64,252.94 141.2,514.22 240.73,756.46 193.87,425.75 -132.54,-618.27 -148.41,-680.89 160.62,556.5 364.17,1110.57 635.33,1623.25 -112.71,-256.92 -208.86,-521.27 -292.39,-789.05 176.54,448.53 354.61,820.5 615.68,1226.77 202.78,300.04 391.41,529.57 658.13,775.57 -250.86,-259.86 -425.57,-499.06 -610.21,-808.64 -63.64,-115.74 -121.33,-230.18 -177.18,-349.84 64.44,114.22 131.04,222.13 203.58,331.62 412.69,593.26 840.75,1010.72 1524.77,1274.21 137.5,47.13 368.51,114.56 515.94,108.05 42.63,-8.48 -386.03,-130.3 -491.8,-171.77 -659.87,-287.61 -1065.97,-678.38 -1476.2,-1260.66 -55.38,-81.56 -107.91,-162.81 -159.12,-246.95 57.52,79.92 116.8,156.78 178.75,233.41 433.37,541.22 849.93,890.96 1516.08,1117.1 314.79,92.64 563.95,119.59 891.14,99.34 339.16,-32.64 596.98,-102.84 911.05,-230.51 124.96,-55.71 238.92,-113.72 359.55,-176.99 277.7,-158.58 -326.11,23.24 -407.82,39.32 -75.45,17.02 -149.05,31.64 -225.29,44.15 71.25,-30.44 137.17,-64.11 206.79,-96.91 317.35,-184.65 565.81,-375.92 840.08,-618.99 -290.28,209.77 -548.71,368.85 -877.19,513.16 -240.22,95.43 -441.67,153.28 -698.29,187.39 251.77,-54.81 448.25,-128.37 679.43,-241.22 401.64,-228.38 703.91,-474.36 1039.87,-789.59 -351.46,283.99 -663.37,499.34 -1075.79,687.15 -215.27,87.64 -397.59,142.89 -627.56,178.68 216.15,-68.11 398.23,-161.43 592.78,-277.89 354.53,-267.66 1270.39,-1168.42 1361.93,-1584.81 -251.74,273.28 -519.71,536.89 -807.78,771.94 7.99,-55.4 15.45,-110.86 22.46,-166.39 -228.6,228.59 -442.29,420.18 -707.55,605.78 -201.64,117.37 -373.98,198.15 -599.57,259.95 -0.06,0.02 -0.12,0.04 -0.18,0.05 0.04,-0.07 0.14,-0.24 0.18,-0.3 57.45,-108.4 101.31,-208.89 142.58,-324.36 -46.22,49.67 -93.74,94.44 -145.25,138.74 -162.64,119.66 -389.84,244.03 -596.9,246.76 -2.84,0.79 -23.44,-0.79 -20.15,-9.13 3.16,-8 41.39,-53.46 44.16,-54.24 164.52,-168.93 286.91,-312.75 395.21,-524.17 -79.01,45.84 -145.71,74.19 -233.92,98.42 -270.69,75.1 -492,43.08 -755.54,-43.86 69.23,-86.84 139.63,-172.75 211.13,-257.74 -179.06,-66.75 -316.33,-145.97 -472.43,-255.49 -331.06,-194.45 -570.71,-406.69 -834.4,-683.91 120.33,-2.96 240.58,-8.44 360.66,-16.72 -268.98,-291.64 -487.75,-615.34 -678.6,-962.51 -25.59,-37.22 -124.88,-245.62 -117.24,-293.7 40.05,-131.38 213.94,16.75 273.92,66.35 -118.81,-180.65 -213.99,-344.09 -298.47,-543.68 -72.92,-238.57 -99.39,-422.19 -76.2,-671.69 36.43,-242.81 104.98,-416.35 230.29,-626.74 112.46,67.27 12.4,597.32 3.68,717.95 -0.23,4.58 -0.15,19.79 -0.9,23.06 1.35,89.87 4.92,101.86 12.15,5.96 24.76,-220.86 82.18,-373.87 193.46,-567.42 132.03,-224.04 273.59,-380.82 465.34,-554.7 126.01,-124 249.14,-230.7 388.93,-337.89 146.57,-111.33 299.62,-214.38 455.84,-311.63 -79.55,184.9 -152.27,373.11 -213.99,564.75 394.56,-228.68 824.19,-410.04 1248.11,-576.75 3.95,44.67 7.96,89.34 11.95,134.01 133.59,-39.74 1023.35,-297.81 1079.12,-269.2 -27.16,38.57 221.09,39.08 233.76,40.3 30.03,2.91 101.11,3.09 99.32,3.18 -28.1,20.72 -61.74,44.07 -87.92,66.48 -34.98,23.64 -70.08,47.08 -105.24,70.45 38.06,-5.29 76.1,-10.63 114.15,-16.05 68.58,-9.43 136.98,-17.86 205.79,-25.46 655.58,-195.68 1366.92,-300.19 2046.16,-373.59 2057.07,129.56 4125.16,455.06 6166.57,740.01 673.35,102.8 1406.21,222.25 2082.13,270.56 367.72,23.54 776.36,40.98 1137.1,-34.39 67.89,-22.03 115.05,-54.16 168.85,-100.15 60.67,-53.52 106.87,-107.11 155.99,-171.11 113.51,-151.71 199.13,-303.29 285.46,-471.3 149.43,-304.78 260.29,-585.64 391,-892.72 -87.56,48.78 -162.63,145.63 -217.89,226.36z"/>
  </g>
  <path class="fil1" d="M9551.65 25101.34c-2665.77,2423.23 -4490.54,1407.93 -5425.39,-1731.43 -745.55,-2503.68 1953.8,-2651.65 4124.29,-3006.87 3184.76,-521.23 10288.84,821.5 11598.79,394.09 385.72,-125.85 787.69,-1261.52 921.19,-1616.79"/>
  <path class="fil1" d="M14469.72 8692.46c-2492.24,-2601.36 -1525.1,-4452.11 1588.69,-5468.89 2483.29,-810.89 2701.93,1883.65 3113.9,4044.09 604.49,3170.01 -551.65,10306.83 -90.06,11605.14 135.91,382.29 1281.72,754.36 1640.37,878.51"/>
  <path class="fil1" d="M20560.42 7112.36c-926.33,-3481.41 814.25,-4635.1 4031.95,-4021.95 2566.15,489 1456.51,2954.17 774.07,5044.98 -1001.34,3067.85 -5459.89,8759.26 -5682.59,10119.07 -65.58,400.4 758.14,1279.49 1012.26,1561.39"/>
  <g id="_1737030467264">
   <path class="fil0" d="M33551.39 10092.53c55.31,-126.54 97.64,-243.08 134.78,-376.17 82.36,-315.36 102.47,-562.12 59.57,-886.06 -57.76,-339.06 -157.84,-578.29 -345.01,-865.83 -216.56,-301.9 -431.64,-502.33 -727.08,-725.02 -136.2,-98.71 -271.93,-191.63 -413.72,-282.15 -451.7,-271.46 -1099.37,-646.82 -1656.35,-595.88 -43.74,-0.48 -86.12,-0.33 -129.85,-3.56 -125.88,-9.71 137.49,-14.35 137.59,-14.36 50.17,-7.2 278.97,-25.02 110.24,-71.17 -24.01,-5.94 -47.98,-11.65 -72.09,-17.18 -204.7,-54.81 -394.14,-93.43 -605.23,-110.45 -177.86,-14.62 -455.63,23.97 -602.85,133.87 -183.11,158.6 171.12,-113.8 48.47,-111 -145.37,24.46 -327.15,65.98 -453.85,143.73 -0.67,0.39 -7.43,4.44 -7.46,4.43 -102.48,61.28 -257.1,172.4 -316.28,280.93 -60.91,218.06 -47.71,-39.88 -135.59,17.9 -35.96,34.09 -69.39,68.38 -102.62,105.13 -146.73,181.49 -252.33,352.19 -340.38,567.12 76.04,-238.74 158.86,-414.92 307.93,-617.35 171.46,-204.47 328.78,-328.21 568.48,-446.21 573.03,-261.13 1084.8,-222.74 1681.26,-65.1 786.47,206.67 1369.82,560.5 2016.1,1042.92 293.69,231.48 506.87,438.75 718.85,748.36 183.86,293.36 281.53,536.56 334.51,879.31 38.49,325.94 15.78,573.36 -70.55,888.9 -38.69,132.6 -82.32,248.98 -138.87,374.89 -66.06,144.44 -135.15,271.73 -218.59,406.67 -425.18,656.72 -869.66,1058.47 -1465.54,1554.74 581.2,-480.05 1036.38,-922.79 1463.31,-1556.19 84.41,-134.51 154.13,-260.94 220.82,-405.22zm-13129.01 9670.03c3.7,-207.88 -67.76,-446.25 -98.47,-660.65 -0.34,-2.6 -0.59,-5.47 -1.04,-8.02 -22.23,-179.97 -30.01,-350.84 -17.05,-532.3 6.55,-73.14 15.92,-137.55 36.8,-208.2 16.48,-52.69 34.56,-96.23 70.63,-138.72 509.43,-490.79 2214.18,-1229.54 2863.1,-1524.31 2569.66,-1034.14 5410.58,-2130.52 7658.55,-3739.64 748.91,-589.77 1502.11,-1147.98 2116.27,-1884.1 133.87,-167.58 252.82,-330.02 368.5,-510.68 168.35,-269.28 286.07,-500.76 386.93,-801.98 103.33,-338.5 139.44,-592.84 132.25,-943.68 -4.89,-144.58 30.95,-518.38 3.97,-611.45 -22.79,130.29 -56.93,258.59 -103.78,382.34 -44.87,-268.57 -128.31,-483 -252.85,-725.81 -190.15,-352 -396.04,-599.07 -684.25,-875.05 -190.68,-179.06 -392.49,-361 -605.37,-513.54 -390.2,-258.05 440.34,453.79 487.02,498.45 -431.38,-386.53 -897.86,-748.23 -1399.69,-1038.97 231.84,158 453.57,331.08 666.44,513.76 -387.59,-286.56 -735.87,-507.42 -1172.7,-713.31 -331.06,-146.76 -612.73,-241.26 -969.32,-308.31 350.5,87.21 625.5,197.29 946.24,361.77 115.35,64.35 224.96,130.76 335.79,202.56 -115.22,-62.64 -228.92,-118.77 -348.5,-173.11 -664.55,-283.97 -1248.87,-410.76 -1968.49,-271.25 -141.56,32.99 -373.16,98.39 -494.67,182.11 -31.65,29.81 396.36,-94.33 508.01,-115.29 711.94,-106.26 1263.48,9.57 1920.13,285.53 90.21,39.76 177.85,80.77 265.9,124.92 -91.17,-37.23 -182.19,-70.94 -275.36,-103.03 -654.47,-228.88 -1193.12,-304.37 -1877.78,-142.67 -315.99,88.46 -541.5,197.79 -808.1,388.53 -270.19,207.59 -451.5,403.87 -650,678.71 -76.38,113.51 -142.21,223.14 -210.9,340.77 -151.27,281.74 264.11,-192.7 324.85,-249.68 54.93,-54.45 109.56,-105.89 167.55,-156.94 -44.24,63.61 -82.27,127.11 -123.88,191.86 -171.06,324.88 -280.21,618.81 -383.76,970.36 134.79,-331.81 269.47,-603.76 471.36,-900.34 153.01,-208.33 293.09,-364.24 492.53,-529.29 -184.36,180.02 -311.89,346.62 -447.99,564.91 -219.31,406.67 -345.05,775.53 -462.61,1220.98 147.27,-427.18 297.43,-775.2 547.41,-1153.19 135.99,-188.49 261.22,-332.05 437.18,-484.38 -147.09,172.4 -251.94,348.09 -355.07,550.02 -158.54,414.97 -457.05,1664.4 -313.76,2065.92 68.42,-365.2 155.73,-730.81 275.24,-1082.89 22.61,51.21 45.71,102.18 69.22,152.97 72.52,-315.05 152.02,-590.81 278.42,-888.87 108.66,-206.46 211.9,-366.36 370.35,-538.42 0.04,-0.05 0.08,-0.1 0.13,-0.14 0,0.08 0.01,0.27 0,0.35 8.81,122.36 24.94,230.82 51.22,350.59 12.82,-66.62 29.35,-129.78 49.52,-194.66 74.39,-187.71 201,-413.67 375.08,-525.82 1.98,-2.18 20.28,-11.77 21.92,-2.96 1.56,8.46 -6.72,67.28 -8.66,69.41 -49.84,230.48 -77.3,417.32 -56.94,653.99 42.65,-80.78 84.15,-140.18 146.07,-207.53 189.63,-207.25 394.21,-297.51 663.73,-363.63 -12.61,110.35 -26.72,220.52 -42.24,330.5 187.2,-38.42 345.59,-44.08 536.02,-34.06 383.79,-10.79 699.53,41.99 1070.11,137.1 -100.43,66.34 -199.46,134.78 -296.85,205.51 382.72,104.52 739.9,262.86 1085.85,455.91 41.43,17.97 236.16,141.96 255.18,186.76 35.75,132.62 -190.24,99.31 -267.39,89.07 196.55,90.11 363.93,178.17 541.43,302.54 188.36,163.55 308.22,305.16 420.92,528.96 97.92,225.15 131.89,408.63 137.27,653.45 -131.02,2.63 -327.39,-499.76 -383.99,-606.65 -2.24,-4 -10.38,-16.86 -11.47,-20.02 -48.82,-75.47 -58.21,-83.74 -13.46,1.4 96.17,200.35 128.67,360.51 137.02,583.61 6.93,259.96 -29.9,467.96 -100.2,717.08 -41.04,171.96 -88.81,327.73 -150.44,492.75 -65.19,172.13 -140.26,340.67 -221.09,505.98 -30.66,-198.94 -68.86,-397.05 -118.2,-592.25 -213.15,403.16 -481.14,784.82 -752.05,1151.02 -27.04,-35.77 -54.14,-71.51 -81.22,-107.26 -92.16,104.56 -709.5,795.34 -771.95,800.67 2.56,-47.1 -208.14,84.16 -219.53,89.85 -27,13.46 -87.35,51.02 -85.88,49.99 12.83,-32.47 28.95,-70.11 39.26,-103 17.12,-38.59 34.43,-77.08 51.84,-115.55 -29.45,24.68 -58.87,49.39 -88.25,74.17 -53.13,44.37 -106.64,87.81 -160.94,130.75 -451.92,513.66 -999.47,979.61 -1536.32,1402.17 -1812.48,981.43 -3738.25,1802.63 -5619.9,2644.04 -625.32,270.07 -1309.93,557.59 -1908.52,875.21 -324.2,175.12 -679.85,377.11 -945.66,632.38 -45.87,54.69 -68.8,106.94 -90.01,174.47 -23.04,77.55 -33.77,147.49 -41.45,227.8 -15.74,188.82 -7.91,362.73 8.03,550.95 35.02,337.62 90.04,634.52 142.15,964.17 48.34,-87.81 60.6,-209.73 64.61,-307.47z"/>
  </g>
  <path class="fil1" d="M26808.38 9044.58c974.23,-3468.32 3059.68,-3575.7 5517.55,-1410.43 1960.19,1726.83 -249.51,3284.25 -1900.97,4736.81 -2423.17,2131.33 -9157.53,4761.8 -10041.22,5819.04 -260.21,311.3 1.52,1487.23 76.82,1859.22"/>
  <g id="_1737108276064">
   <path class="fil0" d="M33551.39 10092.53c55.31,-126.54 97.64,-243.08 134.78,-376.17 82.36,-315.36 102.47,-562.12 59.57,-886.06 -57.76,-339.06 -157.84,-578.29 -345.01,-865.83 -216.56,-301.9 -431.64,-502.33 -727.08,-725.02 -136.2,-98.71 -271.93,-191.63 -413.72,-282.15 -451.7,-271.46 -1099.37,-646.82 -1656.35,-595.88 -43.74,-0.48 -86.12,-0.33 -129.85,-3.56 -125.88,-9.71 137.49,-14.35 137.59,-14.36 50.17,-7.2 278.97,-25.02 110.24,-71.17 -24.01,-5.94 -47.98,-11.65 -72.09,-17.18 -204.7,-54.81 -394.14,-93.43 -605.23,-110.45 -177.86,-14.62 -455.63,23.97 -602.85,133.87 -183.11,158.6 171.12,-113.8 48.47,-111 -145.37,24.46 -327.15,65.98 -453.85,143.73 -0.67,0.39 -7.43,4.44 -7.46,4.43 -102.48,61.28 -257.1,172.4 -316.28,280.93 -60.91,218.06 -47.71,-39.88 -135.59,17.9 -35.96,34.09 -69.39,68.38 -102.62,105.13 -146.73,181.49 -252.33,352.19 -340.38,567.12 76.04,-238.74 158.86,-414.92 307.93,-617.35 171.46,-204.47 328.78,-328.21 568.48,-446.21 573.03,-261.13 1084.8,-222.74 1681.26,-65.1 786.47,206.67 1369.82,560.5 2016.1,1042.92 293.69,231.48 506.87,438.75 718.85,748.36 183.86,293.36 281.53,536.56 334.51,879.31 38.49,325.94 15.78,573.36 -70.55,888.9 -38.69,132.6 -82.32,248.98 -138.87,374.89 -66.06,144.44 -135.15,271.73 -218.59,406.67 -425.18,656.72 -869.66,1058.47 -1465.54,1554.74 581.2,-480.05 1036.38,-922.79 1463.31,-1556.19 84.41,-134.51 154.13,-260.94 220.82,-405.22zm-13129.01 9670.03c3.7,-207.88 -67.76,-446.25 -98.47,-660.65 -0.34,-2.6 -0.59,-5.47 -1.04,-8.02 -22.23,-179.97 -30.01,-350.84 -17.05,-532.3 6.55,-73.14 15.92,-137.55 36.8,-208.2 16.48,-52.69 34.56,-96.23 70.63,-138.72 509.43,-490.79 2214.18,-1229.54 2863.1,-1524.31 2569.66,-1034.14 5410.58,-2130.52 7658.55,-3739.64 748.91,-589.77 1502.11,-1147.98 2116.27,-1884.1 133.87,-167.58 252.82,-330.02 368.5,-510.68 168.35,-269.28 286.07,-500.76 386.93,-801.98 103.33,-338.5 139.44,-592.84 132.25,-943.68 -4.89,-144.58 30.95,-518.38 3.97,-611.45 -22.79,130.29 -56.93,258.59 -103.78,382.34 -44.87,-268.57 -128.31,-483 -252.85,-725.81 -190.15,-352 -396.04,-599.07 -684.25,-875.05 -190.68,-179.06 -392.49,-361 -605.37,-513.54 -390.2,-258.05 440.34,453.79 487.02,498.45 -431.38,-386.53 -897.86,-748.23 -1399.69,-1038.97 231.84,158 453.57,331.08 666.44,513.76 -387.59,-286.56 -735.87,-507.42 -1172.7,-713.31 -331.06,-146.76 -612.73,-241.26 -969.32,-308.31 350.5,87.21 625.5,197.29 946.24,361.77 115.35,64.35 224.96,130.76 335.79,202.56 -115.22,-62.64 -228.92,-118.77 -348.5,-173.11 -664.55,-283.97 -1248.87,-410.76 -1968.49,-271.25 -141.56,32.99 -373.16,98.39 -494.67,182.11 -31.65,29.81 396.36,-94.33 508.01,-115.29 711.94,-106.26 1263.48,9.57 1920.13,285.53 90.21,39.76 177.85,80.77 265.9,124.92 -91.17,-37.23 -182.19,-70.94 -275.36,-103.03 -654.47,-228.88 -1193.12,-304.37 -1877.78,-142.67 -315.99,88.46 -541.5,197.79 -808.1,388.53 -270.19,207.59 -451.5,403.87 -650,678.71 -76.38,113.51 -142.21,223.14 -210.9,340.77 -151.27,281.74 264.11,-192.7 324.85,-249.68 54.93,-54.45 109.56,-105.89 167.55,-156.94 -44.24,63.61 -82.27,127.11 -123.88,191.86 -171.06,324.88 -280.21,618.81 -383.76,970.36 134.79,-331.81 269.47,-603.76 471.36,-900.34 153.01,-208.33 293.09,-364.24 492.53,-529.29 -184.36,180.02 -311.89,346.62 -447.99,564.91 -219.31,406.67 -345.05,775.53 -462.61,1220.98 147.27,-427.18 297.43,-775.2 547.41,-1153.19 135.99,-188.49 261.22,-332.05 437.18,-484.38 -147.09,172.4 -251.94,348.09 -355.07,550.02 -158.54,414.97 -457.05,1664.4 -313.76,2065.92 68.42,-365.2 155.73,-730.81 275.24,-1082.89 22.61,51.21 45.71,102.18 69.22,152.97 72.52,-315.05 152.02,-590.81 278.42,-888.87 108.66,-206.46 211.9,-366.36 370.35,-538.42 0.04,-0.05 0.08,-0.1 0.13,-0.14 0,0.08 0.01,0.27 0,0.35 8.81,122.36 24.94,230.82 51.22,350.59 12.82,-66.62 29.35,-129.78 49.52,-194.66 74.39,-187.71 201,-413.67 375.08,-525.82 1.98,-2.18 20.28,-11.77 21.92,-2.96 1.56,8.46 -6.72,67.28 -8.66,69.41 -49.84,230.48 -77.3,417.32 -56.94,653.99 42.65,-80.78 84.15,-140.18 146.07,-207.53 189.63,-207.25 394.21,-297.51 663.73,-363.63 -12.61,110.35 -26.72,220.52 -42.24,330.5 187.2,-38.42 345.59,-44.08 536.02,-34.06 383.79,-10.79 699.53,41.99 1070.11,137.1 -100.43,66.34 -199.46,134.78 -296.85,205.51 382.72,104.52 739.9,262.86 1085.85,455.91 41.43,17.97 236.16,141.96 255.18,186.76 35.75,132.62 -190.24,99.31 -267.39,89.07 196.55,90.11 363.93,178.17 541.43,302.54 188.36,163.55 308.22,305.16 420.92,528.96 97.92,225.15 131.89,408.63 137.27,653.45 -131.02,2.63 -327.39,-499.76 -383.99,-606.65 -2.24,-4 -10.38,-16.86 -11.47,-20.02 -48.82,-75.47 -58.21,-83.74 -13.46,1.4 96.17,200.35 128.67,360.51 137.02,583.61 6.93,259.96 -29.9,467.96 -100.2,717.08 -41.04,171.96 -88.81,327.73 -150.44,492.75 -65.19,172.13 -140.26,340.67 -221.09,505.98 -30.66,-198.94 -68.86,-397.05 -118.2,-592.25 -213.15,403.16 -481.14,784.82 -752.05,1151.02 -27.04,-35.77 -54.14,-71.51 -81.22,-107.26 -92.16,104.56 -709.5,795.34 -771.95,800.67 2.56,-47.1 -208.14,84.16 -219.53,89.85 -27,13.46 -87.35,51.02 -85.88,49.99 12.83,-32.47 28.95,-70.11 39.26,-103 17.12,-38.59 34.43,-77.08 51.84,-115.55 -29.45,24.68 -58.87,49.39 -88.25,74.17 -53.13,44.37 -106.64,87.81 -160.94,130.75 -451.92,513.66 -999.47,979.61 -1536.32,1402.17 -1812.48,981.43 -3738.25,1802.63 -5619.9,2644.04 -625.32,270.07 -1309.93,557.59 -1908.52,875.21 -324.2,175.12 -679.85,377.11 -945.66,632.38 -45.87,54.69 -68.8,106.94 -90.01,174.47 -23.04,77.55 -33.77,147.49 -41.45,227.8 -15.74,188.82 -7.91,362.73 8.03,550.95 35.02,337.62 90.04,634.52 142.15,964.17 48.34,-87.81 60.6,-209.73 64.61,-307.47z"/>
  </g>
  <path class="fil1" d="M26808.38 9044.58c974.23,-3468.32 3059.68,-3575.7 5517.55,-1410.43 1960.19,1726.83 -249.51,3284.25 -1900.97,4736.81 -2423.17,2131.33 -9157.53,4761.8 -10041.22,5819.04 -260.21,311.3 1.52,1487.23 76.82,1859.22"/>
  <g id="_1737108273568">
   <path class="fil0" d="M5949.82 12342.98c-137.83,8.65 -260.83,24.28 -396.18,52.08 -318.13,70.92 -546.79,165.84 -815.28,352.08 -275.16,206.36 -442.18,404.73 -612.36,702.65 -169.5,330.62 -249.45,613.53 -312.45,978.1 -25.53,166.26 -46.13,329.45 -61.81,496.93 -34.95,525.84 -72.72,1273.47 227.2,1745.56 19.57,39.12 39.08,76.74 56.2,117.11 48.91,116.4 -75.62,-115.72 -75.67,-115.81 -29.34,-41.32 -149.79,-236.67 -113.7,-65.51 5.7,24.07 11.57,48 17.68,71.97 44.83,207.12 97.08,393.26 178.44,588.78 68.3,164.88 229.6,394.28 394.65,474.98 224.76,90.35 -179.44,-100.17 -120.89,7.63 88.21,118.12 208.24,260.81 335.31,337.95 0.66,0.42 7.35,4.58 7.35,4.61 101.35,63.13 270.87,149.86 394.44,152.87 221.79,-45.5 -13.66,60.66 77.91,112.41 46.75,16.4 92.53,30.46 140.41,43.21 228.49,47.54 428.58,63.42 660,43.48 -247.1,41.51 -441.65,48.39 -689.84,8.34 -260.23,-59.02 -442.2,-142.37 -656.73,-301.62 -494.2,-390.28 -694.01,-862.99 -826.47,-1465.54 -175.71,-793.96 -127.69,-1474.54 5.93,-2269.87 71.63,-367.03 158.52,-651.38 336.98,-981.45 176.87,-297.63 348.51,-495.67 629.13,-699.48 272.3,-183.23 502.74,-276.13 822.84,-343.6 135.62,-26.2 259.07,-40.6 396.91,-47.86 158.66,-7.28 303.45,-4.02 461.62,8.51 778.44,77.94 1338.95,289.6 2052.73,592.71 -692.64,-297.47 -1294.5,-499.92 -2053,-590.07 -158.23,-13.58 -302.55,-17.79 -461.35,-11.15zm14602.25 7256.34c-186.57,91.73 -365.91,264.27 -542.56,389.59 -2.16,1.49 -4.59,3.03 -6.65,4.59 -149.91,102.04 -298.33,187.07 -465.64,258.49 -68.04,27.62 -129.61,48.73 -202,62.45 -54.39,9.44 -101.38,13.26 -155.66,0.6 -669.38,-228.73 -2105.73,-1407.22 -2664.54,-1849.61 -2094.45,-1812.69 -4368.26,-3838.2 -6827.04,-5101.95 -866.9,-396.47 -1707.68,-811.18 -2643.14,-1020.91 -210.24,-42.45 -409.09,-73.99 -622.65,-94.29 -316.46,-26.63 -576.15,-25.51 -890.16,22.48 -348.3,62.84 -591.02,147 -899.76,313.78 -126.36,70.44 -475.2,209.44 -545.64,275.98 126.3,-39.29 256.02,-67.57 387.49,-82.48 -218.35,162.68 -370.92,334.91 -529.93,556.68 -226.15,330.03 -351.78,626.09 -465.48,1008.59 -72.09,251.44 -141.64,514.1 -180,773.17 -51.14,465.01 202.3,-599.08 220.69,-661.01 -146.58,560.36 -255.03,1140.59 -284.21,1719.83 34.54,-278.42 87.11,-554.76 152.28,-827.59 -77.68,475.72 -114.9,886.43 -98.33,1369.07 20.81,361.54 65.52,655.25 168.91,1003.05 -82.67,-351.6 -110.48,-646.5 -110.81,-1006.96 4.5,-132 13.46,-259.85 26.66,-391.25 -3.05,131.12 -0.99,257.91 5.34,389.1 51.23,720.86 205.58,1298.51 658.63,1874.76 94.05,110.82 258.09,286.91 388.1,356.71 40.97,14.52 -265.09,-309.4 -334.77,-399.12 -419.96,-584.62 -569.08,-1128.11 -623.82,-1838.28 -5.88,-98.41 -9.46,-195.1 -10.44,-293.6 8.56,98.1 20.19,194.47 34.24,292 95.61,686.72 274.71,1200.3 731.51,1735.31 223.13,240.6 423.45,391.19 714.97,541.11 308.14,145.41 565.59,216.94 900.78,267.85 135.87,16.04 263.47,24.47 399.49,31.79 319.74,5.75 -292.12,-146.81 -370.56,-174.78 -73.54,-23.97 -144.27,-49.04 -216.17,-77.28 76.79,10.28 150.65,15.06 227.26,22.48 367.14,3.62 678.46,-33.67 1038.46,-102.28 -356.73,31.8 -660.16,36.34 -1016.23,-7.64 -255.23,-40.85 -457.93,-94.17 -695.9,-196.1 244.38,81.67 450.85,118.94 707.22,140.2 461.94,9.15 847.49,-47.64 1297.41,-146.71 -447.26,64.29 -825.43,89.83 -1275.88,40.3 -229.81,-34.78 -414.74,-80.54 -630.66,-167.4 220.57,52.02 424.76,64.95 651.5,64.36 441.55,-48.69 1689.24,-354.36 1980.85,-665.35 -356.08,106.09 -721.17,195.57 -1088.93,250.23 35.2,-43.52 69.97,-87.36 104.4,-131.49 -313.36,79.52 -594.96,134.87 -917.83,158.71 -233.3,-2.27 -422.71,-20.99 -648.17,-83.25 -0.07,-0.02 -0.13,-0.03 -0.18,-0.05 0.07,-0.04 0.23,-0.14 0.3,-0.17 104.81,-63.77 193.89,-127.7 288.41,-205.82 -65.12,19.05 -128.85,33.22 -195.77,44.95 -200.96,19.65 -459.8,10.33 -639.13,-93.22 -2.85,-0.77 -19.74,-12.67 -12.65,-18.15 6.81,-5.26 62.91,-24.78 65.69,-24.03 227.77,-61.03 406.5,-122.02 607.68,-248.32 -91.34,-1.01 -163.14,-10.76 -251.35,-35.05 -271.01,-73.91 -444.81,-214.6 -626.82,-424.09 103.9,-39.22 208.34,-77.04 313.25,-113.51 -119.74,-148.93 -197.19,-287.21 -275.32,-461.16 -185.04,-336.41 -282.44,-641.36 -367.26,-1014.43 104.91,59 211.06,115.79 318.48,170.08 -81.99,-388.18 -104.45,-778.23 -90.9,-1174.17 -2.95,-45.06 18.3,-274.93 49.46,-312.34 101.6,-92.42 175.29,123.81 201.45,197.11 -9.71,-216.01 -7.91,-405.13 21.57,-619.85 59.35,-242.3 130.5,-413.63 278.03,-616.17 155.49,-190.02 303.14,-304.1 518.43,-420.81 62.23,115.32 -294.82,519.64 -364.02,618.84 -2.53,3.82 -10.25,16.94 -12.56,19.35 -44.8,77.93 -47.87,90.06 7.4,11.34 134.22,-177.13 261.81,-279.25 456.42,-388.66 228.04,-125 429.87,-187.33 683.57,-238.68 171.7,-42.12 332.08,-70.84 507.03,-91.46 182.89,-20.71 367.1,-30.99 551.08,-34.66 -162.92,118.2 -321.66,242.75 -472.71,375.86 456.01,5.27 917.96,69.16 1367.5,142.69 -19.45,40.41 -38.85,80.85 -58.26,121.27 135.12,34.17 1031.7,267.45 1065,320.56 -43.07,19.26 170,146.64 180.26,154.18 24.32,17.85 85.31,54.36 83.72,53.53 -34.74,3.42 -75.59,6.29 -109.55,12.16 -42.15,2.42 -84.3,4.62 -126.47,6.71 35.42,14.92 70.84,29.79 106.31,44.58 63.75,26.98 126.84,54.72 189.86,83.38 663.43,167.12 1328.16,441.1 1949.39,725.41 1701.44,1163.36 3312.15,2500.73 4920.67,3789.62 526.05,432.7 1094.74,910.15 1650.87,1297.34 303.95,208.29 646.19,432.27 994.73,551.98 69.61,15.79 126.56,12.3 196.32,0.29 79.51,-14.96 146.61,-37.38 221.55,-67.26 175.14,-72.32 326.23,-158.78 486.34,-259.01 284.28,-185.48 523.18,-370.14 792.55,-567.18 -100.19,-2.86 -214.23,41.97 -303,83.09z"/>
  </g>
  <path class="fil1" d="M8100.26 18819.23c-3530.06,719.03 -4578.9,-1086.67 -3776.71,-4262.52 639.76,-2532.78 3035.06,-1279.44 5081.9,-474.66 3003.33,1180.85 8421.38,5967.86 9765.66,6270.51 395.82,89.12 1322.04,-681.22 1618.46,-918.24"/>
  <g id="_1737108275200">
   <path class="fil0" d="M11168.1 6236.13c-124.91,-58.89 -240.2,-104.52 -372.18,-145.44 -312.89,-91.3 -558.98,-118.42 -884,-84.75 -340.57,48.08 -582.56,141.31 -875.31,320.22 -307.94,207.89 -514.41,417.17 -745.41,706.16 -102.55,133.33 -199.3,266.36 -293.81,405.52 -284.21,443.79 -677.85,1080.51 -642.78,1638.72 -1.73,43.71 -2.78,86.08 -7.25,129.69 -13.29,125.56 -10.44,-137.83 -10.44,-137.94 -5.77,-50.35 -17.08,-279.57 -68.01,-112.22 -6.62,23.83 -13.01,47.63 -19.22,71.57 -60.61,203.06 -104.61,391.33 -127.63,601.84 -19.68,177.38 10.99,456.13 116.66,606.42 153.32,187.55 -108.88,-174.29 -109.58,-51.61 20.31,146.01 56.64,328.89 130.75,457.75 0.38,0.69 4.23,7.56 4.22,7.59 58.34,104.18 165.01,261.91 271.82,324.14 216.23,67.1 -41.22,46.56 14.03,136.05 33.05,36.91 66.38,71.31 102.17,105.57 177.24,151.84 344.86,262.25 557.2,356.39 -236.48,-82.81 -410.23,-170.61 -608.33,-325.38 -199.51,-177.21 -318.72,-337.99 -429.85,-580.95 -244.72,-580.23 -191.79,-1090.7 -17.23,-1682.43 228.97,-780.27 599.26,-1353.32 1099.87,-1985.61 239.75,-286.97 453,-494.17 768.52,-697.25 298.48,-175.44 544.35,-266.15 888.47,-309.36 326.9,-29.2 573.58,0.55 886.53,95.82 131.45,42.45 246.54,89.38 370.79,149.49 142.5,70.14 267.77,142.82 400.29,230.08 644.34,443.69 1033.29,899.42 1512.39,1509.19 -463.31,-594.63 -892.91,-1062.23 -1513.9,-1507.01 -132.06,-88.2 -256.46,-161.49 -398.78,-232.26zm9292.46 13398.89c-207.68,-9.61 -447.99,55.04 -663.18,79.64 -2.61,0.26 -5.48,0.43 -8.04,0.81 -180.54,17.1 -351.56,20.01 -532.57,1.89 -72.93,-8.62 -137.05,-19.82 -207.08,-42.71 -52.2,-17.97 -95.2,-37.28 -136.65,-74.55 -476.09,-523.19 -1166.02,-2248.28 -1442.2,-2905.32 -960.6,-2598.05 -1975.68,-5469.02 -3520.17,-7761.88 -568.22,-765.39 -1104.76,-1534.17 -1823.11,-2169.03 -163.7,-138.59 -322.69,-262.11 -499.99,-382.89 -264.37,-175.94 -492.41,-300.21 -790.64,-409.6 -335.42,-112.92 -588.64,-156.25 -939.54,-159.04 -144.66,0.77 -517.29,-45.7 -611.09,-21.38 129.59,26.49 256.88,64.27 379.24,114.62 -269.74,37.21 -486.46,114.51 -732.71,232.1 -357.27,180.05 -610.11,378.82 -894.17,659.06 -184.42,185.51 -372.02,382.06 -530.56,590.51 -269.06,382.7 466.14,-427.25 512.11,-472.63 -398.65,420.2 -773.48,876.19 -1078.39,1369.55 164.53,-227.25 343.85,-443.97 532.52,-651.55 -297.48,379.28 -528.15,721.13 -746.39,1151.93 -156.13,326.75 -258.61,605.61 -335.77,960.15 97.14,-347.88 215,-619.63 388.55,-935.57 67.6,-113.46 137.1,-221.14 212.04,-329.88 -65.9,113.39 -125.25,225.45 -182.97,343.43 -302.77,656.2 -446.13,1236.68 -327.16,1959.97 28.95,142.44 87.73,375.81 167.96,499.66 28.89,32.48 -83.01,-398.88 -100.79,-511.09 -85.95,-714.68 45.52,-1262.7 340.06,-1911.23 42.31,-89.04 85.8,-175.47 132.44,-262.23 -39.81,90.07 -76.09,180.09 -110.82,272.31 -247.42,647.7 -338.2,1183.98 -196.06,1872.96 79.44,318.38 182.3,546.91 365.38,818.83 199.81,275.99 390.85,462.81 659.93,669.06 111.29,79.58 219.01,148.49 334.63,220.5 277.33,159.24 -185.11,-269.48 -240.33,-331.82 -52.87,-56.45 -102.73,-112.52 -152.11,-171.94 62.32,46.03 124.72,85.85 188.26,129.29 319.87,180.23 610.59,297.7 959.04,411.21 -327.84,-144.18 -595.84,-286.53 -886.56,-496.78 -203.89,-158.88 -355.75,-303.34 -515.06,-507.4 174.7,189.4 337.6,321.62 551.93,463.88 400.27,230.8 765.4,366.99 1207.32,497.18 -422.82,-159.38 -766.42,-319.38 -1137.14,-580.01 -184.55,-141.3 -324.48,-270.57 -471.74,-450.79 168.14,151.94 340.78,261.74 539.69,370.58 410.29,170.29 1650.72,504.23 2056.16,372.43 -363.11,-78.79 -726.09,-176.47 -1074.62,-305.95 51.82,-21.14 103.43,-42.79 154.87,-64.84 -312.85,-81.46 -586.24,-168.77 -880.58,-303.61 -203.28,-114.49 -360.19,-222.24 -527.67,-385.51 -0.04,-0.04 -0.09,-0.09 -0.13,-0.13 0.08,0 0.28,-0.01 0.35,0 122.57,-5.32 231.44,-18.36 351.91,-41.22 -66.24,-14.71 -128.9,-33.03 -193.17,-55.04 -185.52,-79.7 -407.78,-212.69 -514.94,-389.89 -2.13,-2.05 -11.19,-20.61 -2.33,-21.99 8.5,-1.33 67.05,8.63 69.13,10.62 228.97,56.39 414.95,89.15 652.11,75.53 -79.53,-44.93 -137.74,-88.11 -203.29,-151.92 -201.77,-195.44 -286.18,-402.52 -344.59,-673.81 109.94,15.75 219.66,32.99 329.16,51.63 -33.07,-188.21 -34.23,-346.7 -18.79,-536.76 0.14,-383.94 61.88,-698.06 167.49,-1065.79 63.46,102.28 129.06,203.22 196.98,302.59 115.38,-379.6 283.82,-732.12 486.63,-1072.44 19.15,-40.9 148.62,-232.02 193.95,-249.76 133.59,-31.97 93.86,192.99 81.43,269.82 95.66,-193.91 188.45,-358.72 317.82,-532.6 168.84,-183.64 313.81,-299.42 540.73,-405.7 227.85,-91.47 412.21,-120.2 657.09,-118.61 -1.1,131.03 -508.88,313.03 -617.33,366.57 -4.07,2.11 -17.15,9.89 -20.34,10.88 -76.83,46.67 -85.36,55.81 1.01,13.51 203.01,-90.44 364.03,-118.37 587.28,-120.36 260.05,0.47 466.92,43.2 713.93,120.57 170.73,45.91 325.07,98.09 488.27,164.39 170.21,70.07 336.54,149.9 499.49,235.41 -199.73,24.98 -398.86,57.53 -595.38,101.3 396.94,224.53 770.81,503.28 1129.15,784.5 -36.52,26.01 -73.02,52.08 -109.52,78.13 101.89,95.1 774.82,731.85 778.37,794.43 -47.01,-3.9 78.2,210.45 83.56,222 12.7,27.37 48.52,88.76 47.53,87.26 -32.09,-13.75 -69.25,-30.93 -101.84,-42.17 -38.08,-18.21 -76.07,-36.61 -114.02,-55.11 23.83,30.14 47.69,60.25 71.62,90.32 42.84,54.38 84.74,109.1 126.12,164.6 500.59,466.35 950.77,1026.94 1357.88,1575.6 929.45,1839.68 1695.51,3788.04 2483.02,5692.87 252.17,632.76 520.09,1325.27 820.55,1932.66 165.81,329.05 357.61,690.31 605.2,963.28 53.37,47.4 104.94,71.81 171.84,94.93 76.87,25.24 146.47,37.96 226.53,47.92 188.3,21.11 362.36,18.23 550.95,7.65 338.49,-25.39 636.83,-71.95 967.83,-114.65 -86.39,-50.82 -207.91,-66.54 -305.51,-73.34z"/>
  </g>
  <path class="fil1" d="M9928.67 12946.58c-3439.18,-1072.54 -3487.17,-3160.2 -1252.83,-5555.46 1781.92,-1910.24 3275.82,342.89 4680.79,2035.01 2061.51,2482.85 4499.25,9289.34 5530.91,10202.76 303.77,268.97 1486.68,40.81 1860.66,-23.87"/>
  <g id="_1737108272928">
   <path class="fil0" d="M36425.96 17698.73c109.32,-84.39 202.44,-166.25 298.98,-265.11 223.77,-236.98 359.99,-443.72 478.04,-748.41 112.29,-325.1 139.49,-582.99 113.53,-925.1 -44.83,-368.83 -137.12,-647.96 -289.2,-985.23 -72,-152.01 -146.38,-298.73 -227.22,-446.24 -265.67,-455.14 -653.26,-1095.56 -1166.19,-1318.55 -38.13,-21.45 -75.37,-41.68 -112.17,-65.52 -105.73,-69.02 127.47,53.48 127.56,53.52 47.46,17.8 256.67,112.12 130.89,-9.44 -18.21,-16.74 -36.48,-33.27 -54.97,-49.7 -153.18,-146.44 -300.75,-271.35 -477.68,-387.72 -148.95,-98.3 -411.09,-197.94 -593.01,-172.31 -236.8,51.09 204.75,-17.56 95.85,-74.05 -139.24,-48.41 -318.6,-99.36 -467.08,-92.06 -0.78,0.02 -8.65,0.32 -8.67,0.3 -119.32,4.5 -308.32,27.63 -412.37,94.37 -158.21,161.96 -22.68,-57.9 -127.51,-49.46 -47.92,12.61 -93.71,26.62 -140.51,42.88 -215.9,88.64 -390.54,187.6 -571.05,333.77 181.42,-172.83 338.72,-287.53 566.73,-393.41 248.62,-96.92 446.05,-129.83 712.96,-118.12 628.02,46.38 1058.37,325.98 1505.68,750.87 590.38,559.18 931.92,1149.82 1266.85,1883.46 146.3,344.14 233.65,628.35 270.76,1001.74 20.26,345.62 -10.96,605.83 -129.21,931.87 -122.88,304.33 -261.7,510.39 -489.04,745.62 -97.66,97.69 -191.85,178.79 -301.95,262.03 -127.34,94.92 -249.1,173.35 -387.13,251.59 -688.46,371.58 -1271.31,510.31 -2032.37,659.15 740.38,-141.68 1352.33,-311.2 2031.11,-661.49 138.67,-77.4 260.57,-154.77 388.39,-249.25zm-16160.68 2170.87c103.14,-180.52 155.02,-423.91 231.12,-626.69 0.96,-2.44 2.12,-5.08 2.95,-7.53 66.99,-168.51 142.29,-322.09 240.85,-474.99 40.89,-61 80.06,-112.99 132.34,-164.91 39.76,-38.29 76.54,-67.78 128.59,-87.71 682.61,-185.58 2532.62,-14.19 3243.35,39.16 2750.46,327.98 5768.71,731.76 8513.38,400.92 940.19,-157.3 1868.97,-284.87 2761.31,-635.27 197.94,-82.63 380.32,-167.92 568.58,-270.76 277.04,-155.24 491.52,-301.67 724.73,-517.35 253.28,-247.2 407.18,-452.9 569.47,-764.02 65.19,-129.14 276.26,-439.73 297.33,-534.31 -82.6,103.31 -174.2,199.42 -274.75,285.42 89.71,-257.09 119.59,-485.23 127.05,-758.01 2.41,-400.07 -59.41,-715.69 -179.53,-1096.21 -81.17,-248.67 -170.72,-505.2 -284.1,-741.28 -218.17,-413.81 168.09,609.58 187.56,671.17 -192.55,-546.27 -427.81,-1087.64 -728.18,-1583.78 127.39,249.97 238.66,508.32 337.55,770.82 -202.19,-437.57 -401.48,-798.62 -685.62,-1189.1 -219.8,-287.8 -421.39,-506.04 -701.89,-736.2 265.47,244.92 453.73,473.61 655.96,771.99 70.23,111.86 134.44,222.77 197.13,339.01 -70.94,-110.31 -143.68,-214.18 -222.43,-319.3 -446.32,-568.39 -897.81,-960.38 -1595.93,-1183.86 -140,-39.09 -374.53,-93.04 -521.32,-78.01 -42.08,10.92 392.92,107.74 500.91,143.02 675.4,248.95 1103.42,615.58 1546.66,1173.15 60,78.21 117.15,156.29 173.14,237.33 -62.05,-76.46 -125.68,-149.76 -191.96,-222.68 -463.95,-515.24 -900.05,-840.29 -1578.17,-1027.51 -319.62,-74.28 -569.92,-86.77 -895.39,-47.63 -336.7,52.21 -590.03,137.2 -896.19,282.83 -121.53,62.85 -231.94,127.36 -348.71,197.5 -268.06,174.38 324.22,-42.07 404.87,-62.85 74.34,-21.35 146.97,-40.21 222.35,-57.11 -69.36,34.52 -133.23,71.94 -200.84,108.72 -306.13,202.7 -543.11,408.02 -802.86,666.54 277.67,-226.2 526.46,-399.97 846.03,-563.04 234.3,-109.16 432.07,-178.57 686.29,-227.47 -248.18,69.28 -440.08,154.09 -664.34,280.11 -387.76,251.24 -675.29,514.29 -992.45,848.44 334.44,-303.85 633.37,-536.89 1034.23,-748.24 209.84,-99.95 388.66,-165.65 616.17,-214.69 -211.84,80.51 -388.22,184.19 -575.7,311.72 -338.46,287.72 -1200.67,1239.96 -1267.96,1660.95 235.5,-287.39 487.77,-566.06 761.77,-817.38 -4.78,55.76 -9.01,111.57 -12.81,167.4 215,-241.43 417.24,-445.06 671.33,-645.69 194.5,-128.84 361.89,-219.46 583.52,-294.21 0.06,-0.02 0.12,-0.04 0.18,-0.05 -0.04,0.07 -0.12,0.24 -0.16,0.3 -51.09,111.55 -89.06,214.41 -123.58,332.07 43.27,-52.26 88.12,-99.71 136.98,-146.91 155.45,-128.87 375.07,-266.17 581.62,-280.87 2.79,-0.96 23.45,-0.58 20.65,7.94 -2.7,8.17 -38.23,55.77 -40.95,56.7 -154.47,178.17 -268.34,328.83 -364.22,546.16 76.22,-50.34 141.17,-82.49 227.83,-111.79 265.89,-90.63 488.68,-71.47 756.81,0.08 -64.08,90.7 -129.4,180.54 -195.87,269.53 182.63,56.27 324.25,127.42 486.43,227.72 341.76,174.97 593.28,373 872.57,634.49 -119.96,9.92 -239.69,22.34 -359.09,37.56 285.4,275.59 522.54,586.1 733.15,921.64 27.69,35.67 138.88,237.98 134.03,286.42 -32.38,133.48 -214.55,-4.33 -277.29,-50.39 129.06,173.48 233.53,331.14 329.42,525.51 86.59,233.94 123.65,415.73 114.93,666.15 -22.33,244.51 -80.72,421.73 -193.65,639.02 -116.16,-60.65 -46.94,-595.61 -45.21,-716.54 -0.03,-4.58 -1,-19.77 -0.43,-23.07 -6.55,-89.65 -10.81,-101.41 -12.48,-5.25 -11.94,221.92 -60.41,378 -160.3,577.66 -118.86,231.3 -251.11,396.01 -432.48,580.69 -118.62,131.09 -235.37,244.73 -368.72,359.83 -139.89,119.62 -286.72,231.35 -437.05,337.48 68.72,-189.19 130.42,-381.3 180.96,-576.18 -380.67,251.12 -799.1,457.03 -1212.66,647.98 -6.52,-44.36 -13.11,-88.73 -19.68,-133.09 -131.07,47.41 -1004.41,356.52 -1061.74,331.18 24.88,-40.08 -222.98,-26.22 -235.7,-26.71 -30.15,-1.16 -101.12,2.77 -99.34,2.57 26.86,-22.3 59.09,-47.57 83.93,-71.45 33.56,-25.62 67.24,-51.06 100.99,-76.42 -37.69,7.49 -75.36,15.01 -113.03,22.63 -67.92,13.38 -135.72,25.75 -203.98,37.32 -643.15,233.28 -1347.26,378.77 -2021.12,491.34 -2061.11,-10.34 -4144.57,-215.64 -6199.05,-382.02 -678.17,-63.67 -1416.71,-140.52 -2094.29,-149.64 -368.47,-2.23 -777.44,4 -1133.21,100.12 -66.5,25.92 -111.72,60.72 -162.77,109.75 -57.48,56.94 -100.5,113.11 -145.83,179.85 -104.55,158.02 -181.26,314.3 -257.72,487.02 -131.55,312.91 -225.97,599.71 -338.69,913.84 84.58,-53.76 153.93,-154.79 204.42,-238.58z"/>
  </g>
  <path class="fil1" d="M31016.23 13539.26c2521.11,-2573.39 4401.57,-1665.36 5516.47,1414.66 889.15,2456.36 -1797.12,2760.24 -3943.42,3240.44 -3149.27,704.6 -10319.13,-224.88 -11602.17,277.6 -377.79,147.95 -713.38,1304.97 -826.11,1667.38"/>
 </g>
</svg>
